<svg width="941" height="535" viewBox="0 0 941 535" fill="none" xmlns="http://www.w3.org/2000/svg">
<g clip-path="url(#clip0)">
<path d="M750.554 209.491H940.545L909.597 231.824V275.763C909.597 280.829 905.488 284.938 900.422 284.938H750.554C745.486 284.938 741.378 280.829 741.378 275.763V218.665C741.378 213.597 745.486 209.491 750.554 209.491Z" fill="#F3F2F1"/>
<path d="M758.48 240.543C758.48 240.725 787.135 240.875 822.473 240.875C857.824 240.875 886.473 240.725 886.473 240.543C886.473 240.359 857.824 240.211 822.473 240.211C787.135 240.211 758.48 240.359 758.48 240.543Z" fill="#DADBD8"/>
<path d="M758.48 257.412C758.48 257.596 787.135 257.744 822.473 257.744C857.824 257.744 886.473 257.596 886.473 257.412C886.473 257.229 857.824 257.08 822.473 257.08C787.135 257.08 758.48 257.229 758.48 257.412Z" fill="#DADBD8"/>
<path d="M462.007 47.3575H453.115V77.1401H462.007V47.3575Z" fill="#DADBD8"/>
<path d="M387.743 43.0428H378.852V77.1401H387.743V43.0428Z" fill="#DADBD8"/>
<path d="M406.309 35.9361H397.417V77.1401H406.309V35.9361" fill="#DADBD8"/>
<path d="M424.875 38.1961H415.984V77.1401H424.875V38.1961Z" fill="#DADBD8"/>
<path d="M443.44 25.0215H434.549V77.1401H443.44V25.0215Z" fill="#DADBD8"/>
<path d="M480.572 25.2748H471.681V77.1401H480.572V25.2748" fill="#DADBD8"/>
<path d="M499.137 42.3095H490.247V77.1401H499.137V42.3095Z" fill="#DADBD8"/>
<path d="M517.704 27.5588H508.813V77.1401H517.704V27.5588Z" fill="#DADBD8"/>
<path d="M536.268 16.3908H527.377V77.1401H536.268V16.3908Z" fill="#DADBD8"/>
<path d="M554.834 27.3055H545.944V77.1401H554.834V27.3055Z" fill="#DADBD8"/>
<path d="M789.101 74.3789L862.629 63.1429C868.792 103.479 840.672 141.743 800.336 147.906C760 154.068 721.737 125.95 715.575 85.6135C709.412 45.2775 737.531 7.01485 777.867 0.850855C784.288 -0.130478 790.812 -0.266449 797.268 0.446884L789.101 74.3789Z" fill="#E7E8E5"/>
<path d="M812.958 0.682718L804.032 57.6787L859.98 47.172C859.98 47.172 851.753 15.2294 812.958 0.682718Z" fill="#DADBD8"/>
<path d="M92.2118 211.773C92.0576 202.119 84.1128 194.389 74.5028 194.545C64.8915 194.7 57.1982 202.681 57.3528 212.336C57.5071 221.991 65.4514 229.72 75.0628 229.565C84.6727 229.409 92.3659 221.428 92.2118 211.773V211.773ZM38.3295 212.643C38.0066 192.451 54.0971 175.757 74.1967 175.433C94.2971 175.109 110.913 191.273 111.235 211.467C111.558 231.66 95.468 248.352 75.368 248.676C55.2675 249 38.6519 232.836 38.3295 212.643" fill="#F3F2F1"/>
<path d="M38.3295 212.643C38.0066 192.451 54.0971 175.759 74.1967 175.433L74.5028 194.545C64.8915 194.7 57.1982 202.681 57.3528 212.336C57.5071 221.991 65.4514 229.72 75.0628 229.565L75.368 248.676C55.2675 249 38.6524 232.836 38.3295 212.643" fill="#DADBD8"/>
<path d="M70.9238 172.495C94.4394 172.115 113.199 190.365 113.576 213.989L91.3206 214.348C91.14 203.052 82.5452 195.94 71.3014 196.123L70.9238 172.495Z" fill="#E7E8E5"/>
<path d="M275.181 396.323H228.843V341.231H275.181V396.323Z" fill="#F3F2F1"/>
<path d="M230.439 399.785H21.0171V337.64H230.439V399.785" fill="#DADBD8"/>
<path d="M276.586 342.867H224.824V337.64H276.586C278.029 337.64 279.198 338.809 279.198 340.253C279.198 341.696 278.029 342.867 276.586 342.867" fill="#DADBD8"/>
<path d="M276.586 399.785H224.824V394.56H276.586C278.029 394.56 279.198 395.729 279.198 397.173C279.198 398.616 278.029 399.785 276.586 399.785Z" fill="#DADBD8"/>
<path d="M189.23 337.64V399.785H213.973V337.64H189.23Z" fill="#E7E8E5"/>
<path d="M40.9336 338.327V400.475H65.6757V338.327H40.9336" fill="#E7E8E5"/>
<path d="M275.181 350.343C275.181 350.495 265.153 350.619 252.784 350.619C240.409 350.619 230.383 350.495 230.383 350.343C230.383 350.192 240.409 350.068 252.784 350.068C265.153 350.068 275.181 350.192 275.181 350.343Z" fill="#DADBD8"/>
<path d="M275.181 358.604C275.181 358.757 265.153 358.88 252.784 358.88C240.409 358.88 230.383 358.757 230.383 358.604C230.383 358.452 240.409 358.328 252.784 358.328C265.153 358.328 275.181 358.452 275.181 358.604Z" fill="#DADBD8"/>
<path d="M275.181 368.776C275.181 368.929 265.153 369.051 252.784 369.051C240.409 369.051 230.383 368.929 230.383 368.776C230.383 368.624 240.409 368.5 252.784 368.5C265.153 368.5 275.181 368.624 275.181 368.776Z" fill="#DADBD8"/>
<path d="M275.181 378.948C275.181 379.101 265.153 379.223 252.784 379.223C240.409 379.223 230.383 379.101 230.383 378.948C230.383 378.796 240.409 378.673 252.784 378.673C265.153 378.673 275.181 378.796 275.181 378.948Z" fill="#DADBD8"/>
<path d="M275.181 389.12C275.181 389.272 265.153 389.395 252.784 389.395C240.409 389.395 230.383 389.272 230.383 389.12C230.383 388.968 240.409 388.845 252.784 388.845C265.153 388.845 275.181 388.968 275.181 389.12Z" fill="#DADBD8"/>
<path d="M175.929 374.372H81.7129V363.181H175.929V374.372" fill="#E7E8E5"/>
<path d="M274.71 434.572H227.66V401.004H274.71V434.572Z" fill="#FAFAF9"/>
<path d="M228.187 435.789H27.9517V399.785H228.187V435.789Z" fill="#F3F2F1"/>
<path d="M226.732 402.221H277.303C277.976 402.221 278.52 401.676 278.52 401.004C278.52 400.331 277.976 399.785 277.303 399.785H226.732V402.221Z" fill="#F3F2F1"/>
<path d="M226.732 435.789H277.961C278.271 435.789 278.52 435.54 278.52 435.231V433.914C278.52 433.603 278.271 433.353 277.961 433.353H226.732V435.789Z" fill="#F3F2F1"/>
<path d="M274.711 407.381C274.711 407.533 264.296 407.657 251.451 407.657C238.6 407.657 228.187 407.533 228.187 407.381C228.187 407.229 238.6 407.105 251.451 407.105C264.296 407.105 274.711 407.229 274.711 407.381Z" fill="#DADBD8"/>
<path d="M274.711 413.731C274.711 413.883 264.296 414.007 251.451 414.007C238.6 414.007 228.187 413.883 228.187 413.731C228.187 413.58 238.6 413.456 251.451 413.456C264.296 413.456 274.711 413.58 274.711 413.731Z" fill="#DADBD8"/>
<path d="M274.711 420.083C274.711 420.235 264.296 420.357 251.451 420.357C238.6 420.357 228.187 420.235 228.187 420.083C228.187 419.931 238.6 419.807 251.451 419.807C264.296 419.807 274.711 419.931 274.711 420.083Z" fill="#DADBD8"/>
<path d="M274.711 426.433C274.711 426.586 264.296 426.708 251.451 426.708C238.6 426.708 228.187 426.586 228.187 426.433C228.187 426.28 238.6 426.159 251.451 426.159C264.296 426.159 274.711 426.28 274.711 426.433Z" fill="#DADBD8"/>
<path d="M281.848 529.986H233.823V438.989H281.848V529.986Z" fill="#E7E8E5"/>
<path d="M233.823 534.453H8.39648V435.789H233.823V534.453Z" fill="#DADBD8"/>
<path d="M285.606 534.453H227.66V528.055H285.606C287.373 528.055 288.806 529.488 288.806 531.255C288.806 533.021 287.373 534.453 285.606 534.453" fill="#DADBD8"/>
<path d="M287.338 442.188H227.66V435.789H287.338C288.149 435.789 288.806 436.447 288.806 437.259V440.72C288.806 441.532 288.149 442.188 287.338 442.188" fill="#DADBD8"/>
<path d="M281.848 451.187C281.848 451.339 271.097 451.463 257.837 451.463C244.572 451.463 233.823 451.339 233.823 451.187C233.823 451.036 244.572 450.912 257.837 450.912C271.097 450.912 281.848 451.036 281.848 451.187Z" fill="#DADBD8"/>
<path d="M281.848 462.859C281.848 463.009 271.097 463.133 257.837 463.133C244.572 463.133 233.823 463.009 233.823 462.859C233.823 462.707 244.572 462.583 257.837 462.583C271.097 462.583 281.848 462.707 281.848 462.859Z" fill="#DADBD8"/>
<path d="M281.848 474.529C281.848 474.68 271.097 474.804 257.837 474.804C244.572 474.804 233.823 474.68 233.823 474.529C233.823 474.377 244.572 474.253 257.837 474.253C271.097 474.253 281.848 474.377 281.848 474.529Z" fill="#DADBD8"/>
<path d="M281.848 486.2C281.848 486.352 271.097 486.475 257.837 486.475C244.572 486.475 233.823 486.352 233.823 486.2C233.823 486.048 244.572 485.926 257.837 485.926C271.097 485.926 281.848 486.048 281.848 486.2Z" fill="#DADBD8"/>
<path d="M281.848 497.871C281.848 498.023 271.097 498.147 257.837 498.147C244.572 498.147 233.823 498.023 233.823 497.871C233.823 497.717 244.572 497.596 257.837 497.596C271.097 497.596 281.848 497.717 281.848 497.871Z" fill="#DADBD8"/>
<path d="M281.848 509.541C281.848 509.693 271.097 509.817 257.837 509.817C244.572 509.817 233.823 509.693 233.823 509.541C233.823 509.389 244.572 509.267 257.837 509.267C271.097 509.267 281.848 509.389 281.848 509.541Z" fill="#DADBD8"/>
<path d="M281.848 521.214C281.848 521.364 271.097 521.488 257.837 521.488C244.572 521.488 233.823 521.364 233.823 521.214C233.823 521.06 244.572 520.936 257.837 520.936C271.097 520.936 281.848 521.06 281.848 521.214Z" fill="#DADBD8"/>
<path d="M85.5349 490.521V496.011C85.5349 502.621 82.2296 506.4 75.8535 506.4C69.4786 506.4 66.1729 502.621 66.1729 496.011V474.524C66.1729 467.912 69.4786 464.135 75.8535 464.135C82.2296 464.135 85.5349 467.912 85.5349 474.524V478.539H79.3953V474.109C79.3953 471.159 78.0972 470.038 76.0306 470.038C73.965 470.038 72.6666 471.159 72.6666 474.109V496.424C72.6666 499.376 73.965 500.438 76.0306 500.438C78.0972 500.438 79.3953 499.376 79.3953 496.424V490.521H85.5349Z" fill="#E7E8E5"/>
<path d="M95.4469 496.424C95.4469 499.376 96.7459 500.496 98.8115 500.496C100.878 500.496 102.176 499.376 102.176 496.424V474.109C102.176 471.159 100.878 470.038 98.8115 470.038C96.7459 470.038 95.4469 471.159 95.4469 474.109V496.424ZM88.9536 474.524C88.9536 467.912 92.436 464.135 98.8115 464.135C105.186 464.135 108.67 467.912 108.67 474.524V496.011C108.67 502.621 105.186 506.4 98.8115 506.4C92.436 506.4 88.9536 502.621 88.9536 496.011V474.524" fill="#E7E8E5"/>
<path d="M112.855 464.607H119.349V500.026H130.034V505.928H112.855V464.607Z" fill="#E7E8E5"/>
<path d="M138.824 496.424C138.824 499.376 140.122 500.496 142.188 500.496C144.254 500.496 145.553 499.376 145.553 496.424V474.109C145.553 471.159 144.254 470.038 142.188 470.038C140.122 470.038 138.824 471.159 138.824 474.109V496.424ZM132.33 474.524C132.33 467.912 135.813 464.135 142.188 464.135C148.564 464.135 152.046 467.912 152.046 474.524V496.011C152.046 502.621 148.564 506.4 142.188 506.4C135.813 506.4 132.33 502.621 132.33 496.011V474.524Z" fill="#E7E8E5"/>
<path d="M162.432 464.607V496.483C162.432 499.435 163.73 500.496 165.796 500.496C167.862 500.496 169.161 499.435 169.161 496.483V464.607H175.3V496.069C175.3 502.681 171.994 506.459 165.62 506.459C159.244 506.459 155.938 502.681 155.938 496.069V464.607H162.432" fill="#E7E8E5"/>
<path d="M186.216 470.509V483.202H188.755C191.175 483.202 192.651 482.139 192.651 478.832V474.76C192.651 471.808 191.647 470.509 189.345 470.509H186.216ZM193.3 505.928C192.945 504.865 192.709 504.215 192.709 500.851V494.357C192.709 490.521 191.411 489.104 188.459 489.104H186.216V505.928H179.723V464.607H189.521C196.251 464.607 199.144 467.735 199.144 474.109V477.357C199.144 481.607 197.787 484.381 194.893 485.74C198.14 487.097 199.203 490.226 199.203 494.535V500.91C199.203 502.917 199.261 504.392 199.911 505.928H193.3" fill="#E7E8E5"/>
<path d="M84.1309 413.967H79.395L79.6445 412.74H90.5137L90.2455 413.967H85.5294L83.095 426.157H81.6961L84.1309 413.967Z" fill="#DADBD8"/>
<path d="M99.6323 416.074L92.2719 427.462C91.0255 429.379 90.087 429.972 88.6298 429.972C87.6912 429.972 86.7323 429.645 86.2339 429.071L86.962 428.075C87.4031 428.535 87.9781 428.804 88.7448 428.804C89.6079 428.804 90.2782 428.4 91.0646 427.174L91.7746 426.102L89.2625 416.074H90.6421L92.7312 424.66L98.2328 416.074H99.6323" fill="#DADBD8"/>
<path d="M109.461 420.331C109.461 418.355 108.253 417.186 106.144 417.186C103.634 417.186 101.794 419.16 101.794 421.92C101.794 423.896 103.001 425.047 105.11 425.047C107.621 425.047 109.461 423.072 109.461 420.331ZM110.84 420.255C110.84 423.721 108.425 426.252 105.129 426.252C103.212 426.252 101.869 425.467 101.295 424.048L100.145 429.876H98.7837L101.525 416.073H102.828L102.502 417.685C103.46 416.612 104.803 415.998 106.433 415.998C109.02 415.998 110.84 417.608 110.84 420.255Z" fill="#DADBD8"/>
<path d="M121.474 420.331C121.474 418.355 120.266 417.186 118.158 417.186C115.647 417.186 113.787 419.179 113.787 421.92C113.787 423.896 114.995 425.047 117.103 425.047C119.615 425.047 121.474 423.072 121.474 420.331ZM112.425 421.98C112.425 418.548 114.86 415.998 118.253 415.998C121.051 415.998 122.834 417.647 122.834 420.255C122.834 423.704 120.4 426.252 117.007 426.252C114.209 426.252 112.425 424.565 112.425 421.98Z" fill="#DADBD8"/>
<path d="M133.582 420.117C133.582 418.277 132.337 417.186 130.246 417.186C127.697 417.186 125.858 419.065 125.858 421.632C125.858 423.474 127.084 424.565 129.193 424.565C131.723 424.565 133.582 422.688 133.582 420.117ZM135.882 416.074L134.12 424.931C133.409 428.495 131.53 429.972 128.253 429.972C126.355 429.972 124.803 429.436 123.769 428.457L124.573 427.422C125.378 428.247 126.739 428.765 128.35 428.765C130.898 428.765 132.24 427.595 132.719 425.162L132.95 424.048C131.991 425.122 130.63 425.775 128.925 425.775C126.259 425.775 124.477 424.221 124.477 421.71C124.477 418.471 126.873 415.998 130.228 415.998C132.087 415.998 133.582 416.764 134.157 418.298L134.578 416.074H135.882" fill="#DADBD8"/>
<path d="M144.771 415.999L144.521 417.321C144.387 417.321 144.291 417.3 144.137 417.3C141.991 417.3 140.553 418.527 140.055 421.04L139.04 426.157H137.679L139.672 416.074H140.975L140.629 417.914C141.532 416.592 142.853 415.999 144.771 415.999" fill="#DADBD8"/>
<path d="M154.064 420.331C154.064 418.355 152.856 417.186 150.748 417.186C148.236 417.186 146.377 419.179 146.377 421.92C146.377 423.896 147.584 425.047 149.693 425.047C152.204 425.047 154.064 423.072 154.064 420.331ZM156.325 416.074L154.313 426.157H153.009L153.335 424.565C152.376 425.62 151.036 426.252 149.405 426.252C146.819 426.252 145.015 424.643 145.015 421.98C145.015 418.527 147.432 415.998 150.709 415.998C152.627 415.998 153.968 416.784 154.543 418.183L154.964 416.074H156.325" fill="#DADBD8"/>
<path d="M168.03 420.331C168.03 418.355 166.822 417.186 164.714 417.186C162.204 417.186 160.364 419.16 160.364 421.92C160.364 423.896 161.57 425.047 163.68 425.047C166.19 425.047 168.03 423.072 168.03 420.331ZM169.41 420.255C169.41 423.721 166.996 426.252 163.698 426.252C161.781 426.252 160.438 425.467 159.864 424.048L158.714 429.876H157.353L160.096 416.073H161.397L161.072 417.685C162.03 416.612 163.373 415.998 165.002 415.998C167.589 415.998 169.41 417.608 169.41 420.255Z" fill="#DADBD8"/>
<path d="M181.616 419.276C181.616 419.641 181.577 420.024 181.5 420.427L180.35 426.157H178.988L180.14 420.405C180.196 420.08 180.234 419.774 180.234 419.488C180.234 418.05 179.372 417.226 177.628 417.226C175.481 417.226 174.006 418.393 173.525 420.752L172.453 426.157H171.092L173.929 411.935H175.289L174.158 417.588C175.117 416.496 176.458 415.999 178.012 415.999C180.292 415.999 181.616 417.226 181.616 419.276" fill="#DADBD8"/>
<path d="M194.356 416.074L186.994 427.462C185.749 429.379 184.809 429.972 183.353 429.972C182.413 429.972 181.454 429.645 180.957 429.071L181.684 428.075C182.126 428.535 182.701 428.804 183.468 428.804C184.33 428.804 185.001 428.4 185.788 427.174L186.497 426.102L183.986 416.074H185.365L187.454 424.66L192.956 416.074H194.356" fill="#DADBD8"/>
<path d="M224.729 1.7015H20.2114L53.527 25.7428V73.0402C53.527 78.4948 57.9484 82.9175 63.403 82.9175H224.729C230.184 82.9175 234.605 78.4948 234.605 73.0402V11.5775C234.605 6.12284 230.184 1.7015 224.729 1.7015" fill="#F3F2F1"/>
<path d="M216.198 35.1281C216.198 35.3241 185.352 35.4841 147.312 35.4841C109.257 35.4841 78.4175 35.3241 78.4175 35.1281C78.4175 34.9308 109.257 34.7708 147.312 34.7708C185.352 34.7708 216.198 34.9308 216.198 35.1281" fill="#DADBD8"/>
<path d="M216.198 53.2867C216.198 53.484 185.352 53.644 147.312 53.644C109.257 53.644 78.4175 53.484 78.4175 53.2867C78.4175 53.0894 109.257 52.9307 147.312 52.9307C185.352 52.9307 216.198 53.0894 216.198 53.2867" fill="#DADBD8"/>
<path d="M934.045 534.453C934.045 534.645 724.935 534.8 467.045 534.8C209.065 534.8 -0.000488281 534.645 -0.000488281 534.453C-0.000488281 534.263 209.065 534.105 467.045 534.105C724.935 534.105 934.045 534.263 934.045 534.453Z" fill="#17282F"/>
<path d="M846.288 466.4C846.288 466.4 810.944 425.721 797.606 385.044C784.269 344.365 790.605 349.033 790.605 349.033C790.605 349.033 808.61 388.549 822.28 407.636C835.952 426.721 860.292 454.731 860.292 454.731L846.288 466.4Z" fill="#33535F"/>
<path d="M853.332 355.371C852.192 353.384 849.156 354.418 849.498 356.682C851.653 370.97 856.312 404.5 856.128 426.248C855.89 454.499 856.137 465.42 856.137 465.42H870.848C870.848 465.42 868.236 407.017 864.912 389.212C862.582 376.727 857.634 362.867 853.332 355.371" fill="#33535F"/>
<path d="M861.351 460.672C861.351 460.672 870.609 441.205 873.459 416.752C874.671 406.352 872.509 392.299 869.295 373.544C867.737 364.459 867.384 357.545 867.435 352.752C867.473 349.131 872.253 347.947 874.025 351.107C875.8 354.273 880.939 365.097 882.244 371.881C885.805 390.399 889.84 399.657 886.755 417.226C883.668 434.795 872.272 461.859 872.272 461.859L861.351 460.672" fill="#33535F"/>
<path d="M874.601 461.859C874.601 461.859 913.406 378.465 916.097 366.093C918.785 353.721 927.93 325.212 929.006 326.827C930.082 328.44 931.696 343.5 924.704 360.715C917.709 377.928 887.852 464.4 887.852 464.4H874.601V461.859Z" fill="#33535F"/>
<path d="M857.101 458.128C857.085 458.151 856.71 457.892 856.014 457.381C855.325 456.859 854.28 456.126 853.008 455.086C850.426 453.056 846.801 449.969 842.58 445.88C834.108 437.744 823.565 425.203 814.426 409.746C805.266 394.292 799.108 379.18 795.209 368.118C793.258 362.579 791.833 358.045 790.91 354.895C790.434 353.324 790.109 352.092 789.88 351.259C789.656 350.424 789.552 349.983 789.58 349.974C789.606 349.966 789.764 350.392 790.041 351.211C790.332 352.103 790.725 353.298 791.217 354.799C792.234 357.916 793.742 362.416 795.761 367.919C799.793 378.91 806.017 393.935 815.14 409.323C824.241 424.715 834.654 437.25 842.99 445.462C847.144 449.591 850.698 452.735 853.212 454.836C854.45 455.912 855.462 456.684 856.116 457.25C856.778 457.803 857.12 458.105 857.101 458.128" fill="#17282F"/>
<path d="M861.348 418.121C861.291 418.125 861.169 417.253 861 415.673C860.816 413.947 860.575 411.698 860.284 408.989C859.669 403.347 858.711 395.567 857.34 387.02C855.963 378.471 854.433 370.78 853.251 365.231C852.676 362.568 852.2 360.356 851.833 358.66C851.5 357.105 851.341 356.24 851.397 356.227C851.453 356.213 851.716 357.051 852.148 358.581C852.583 360.111 853.156 362.337 853.821 365.103C855.153 370.628 856.777 378.32 858.159 386.888C859.533 395.455 860.401 403.268 860.868 408.933C861.103 411.765 861.256 414.06 861.321 415.649C861.392 417.237 861.405 418.117 861.348 418.121" fill="#17282F"/>
<path d="M870.437 350.452C870.464 350.441 870.621 350.808 870.896 351.512C871.19 352.297 871.577 353.327 872.058 354.609C872.572 355.953 873.161 357.611 873.724 359.575C874.301 361.535 875.048 363.741 875.61 366.252C875.917 367.504 876.237 368.813 876.572 370.173C876.897 371.54 877.128 372.984 877.426 374.467C878.058 377.428 878.45 380.639 878.922 384.008C879.68 390.769 880.094 398.255 879.848 406.107C879.533 413.961 878.584 421.4 877.341 428.091C876.632 431.419 876.01 434.593 875.166 437.501C874.764 438.959 874.43 440.383 874.006 441.721C873.577 443.056 873.162 444.337 872.766 445.564C872.028 448.029 871.124 450.177 870.408 452.089C869.706 454.008 869 455.619 868.392 456.922C867.82 458.167 867.36 459.167 867.009 459.929C866.686 460.61 866.502 460.964 866.477 460.952C866.45 460.94 866.584 460.564 866.858 459.86C867.17 459.084 867.582 458.065 868.094 456.796C868.656 455.477 869.318 453.853 869.974 451.925C870.648 450.003 871.509 447.849 872.209 445.383C872.588 444.157 872.982 442.876 873.393 441.543C873.798 440.205 874.114 438.783 874.501 437.328C875.313 434.427 875.905 431.263 876.592 427.948C877.785 421.285 878.706 413.888 879.02 406.079C879.264 398.269 878.876 390.825 878.162 384.096C877.714 380.741 877.352 377.544 876.75 374.592C876.469 373.112 876.254 371.672 875.946 370.309C875.632 368.949 875.329 367.643 875.041 366.392C874.518 363.883 873.813 361.672 873.28 359.709C872.762 357.737 872.218 356.071 871.753 354.715C871.332 353.412 870.996 352.367 870.738 351.569C870.516 350.847 870.41 350.463 870.437 350.452" fill="#17282F"/>
<path d="M928.561 328.501C928.576 328.504 928.565 328.631 928.532 328.876C928.485 329.168 928.427 329.524 928.359 329.959C928.188 330.908 927.973 332.317 927.595 334.109C926.844 337.697 925.597 342.86 923.656 349.123C921.721 355.388 919.071 362.733 915.928 370.803C912.797 378.877 909.157 387.672 905.712 397.036C902.215 406.385 899.52 415.508 896.988 423.788C894.479 432.075 892.097 439.51 889.797 445.652C887.519 451.8 885.325 456.643 883.669 459.912C882.875 461.564 882.16 462.797 881.7 463.644C881.483 464.027 881.304 464.34 881.156 464.598C881.031 464.81 880.96 464.916 880.947 464.909C880.935 464.902 880.98 464.783 881.083 464.557C881.208 464.289 881.364 463.964 881.552 463.565C881.964 462.695 882.632 461.441 883.379 459.772C884.941 456.467 887.045 451.607 889.247 445.449C891.471 439.3 893.788 431.864 896.257 423.567C898.748 415.28 901.427 406.125 904.935 396.751C908.388 387.364 912.049 378.576 915.216 370.524C918.396 362.479 921.096 355.172 923.096 348.945C925.103 342.723 926.435 337.599 927.279 334.04C927.707 332.263 927.972 330.865 928.195 329.928C928.296 329.499 928.379 329.149 928.447 328.86C928.509 328.62 928.547 328.499 928.561 328.501" fill="#17282F"/>
<path d="M808.901 310.081C806.456 307.652 802.389 310.192 803.401 313.488C804.427 316.829 805.983 321.151 808.277 326.027C813.612 337.364 829.283 378.043 836.619 400.381C843.955 422.72 854.291 464.4 854.291 464.4L869.955 461.859C869.955 461.859 855.624 393.379 841.62 368.707C830.368 348.881 819.116 320.229 808.901 310.081" fill="#33535F"/>
<path d="M840.905 414.353C840.96 414.334 841.244 415.003 841.712 416.231C842.176 417.46 842.808 419.253 843.518 421.491C844.961 425.959 846.726 432.2 848.505 439.133C850.278 446.071 851.757 452.381 852.788 456.955C853.258 459.12 853.653 460.937 853.966 462.384C854.228 463.668 854.345 464.385 854.289 464.4C854.234 464.414 854.01 463.721 853.653 462.459C853.27 461.031 852.79 459.233 852.217 457.093C851.02 452.381 849.444 446.19 847.702 439.338C845.926 432.414 844.255 426.16 842.957 421.66C842.339 419.536 841.82 417.752 841.406 416.333C841.033 415.077 840.852 414.373 840.905 414.353" fill="#17282F"/>
<path d="M862.158 463.129C862.145 463.131 862.114 462.989 862.07 462.712C862.024 462.386 861.965 461.98 861.893 461.477C861.728 460.395 861.582 458.787 861.252 456.734C860.677 452.619 859.649 446.69 857.968 439.456C856.296 432.219 853.856 423.708 850.636 414.431C847.422 405.151 843.392 395.123 838.825 384.746C829.609 364.014 820.404 345.626 814.354 332.03C811.297 325.247 808.929 319.71 807.37 315.852C806.574 313.93 806.006 312.418 805.608 311.396C805.432 310.92 805.289 310.538 805.174 310.228C805.081 309.963 805.038 309.826 805.052 309.82C805.065 309.815 805.133 309.942 805.253 310.196C805.388 310.496 805.556 310.871 805.762 311.332C806.224 312.396 806.861 313.864 807.668 315.726C809.317 319.543 811.764 325.04 814.886 331.786C821.068 345.31 830.354 363.648 839.584 384.411C844.157 394.804 848.176 404.863 851.357 414.181C854.546 423.498 856.934 432.051 858.538 439.326C860.153 446.596 861.093 452.556 861.572 456.692C861.853 458.755 861.948 460.371 862.058 461.46C862.097 461.967 862.129 462.376 862.154 462.703C862.172 462.984 862.173 463.128 862.158 463.129" fill="#17282F"/>
<path d="M869.954 461.859C869.897 461.867 869.712 460.929 869.426 459.227C869.114 457.386 868.705 454.96 868.208 452.026C867.128 445.956 865.48 437.597 863.109 428.498C860.764 419.391 858.121 411.291 856.088 405.472C855.089 402.668 854.262 400.349 853.638 398.592C853.05 396.969 852.752 396.061 852.805 396.041C852.858 396.019 853.258 396.885 853.937 398.475C854.613 400.064 855.556 402.379 856.638 405.272C858.816 411.051 861.557 419.153 863.912 428.291C866.289 437.42 867.852 445.826 868.785 451.931C869.23 454.988 869.573 457.463 869.746 459.183C869.933 460.898 870.012 461.852 869.954 461.859" fill="#17282F"/>
<path d="M840.962 534.104H902.105V459.608H840.962V534.104Z" fill="#F2575D"/>
<path d="M840.962 534.104H902.105V459.608H840.962V534.104Z" fill="#0D98E7"/>
<path d="M882.601 534.105H828.356V459.608H882.601V534.105Z" fill="#57BAF2"/>
<path d="M87.7244 433.709C77.3086 427.039 62.8733 426.912 52.7373 433.996C43.1134 440.724 38.2274 452.968 38.652 464.702C39.0764 476.436 44.7638 490.772 55.3946 496.938L86.5993 496.815C96.5629 489.488 103.3 477.684 103.77 465.325C104.24 452.967 98.1389 440.38 87.7244 433.709" fill="#33535F"/>
<path d="M72.3603 498.069C72.292 498.069 72.2249 497.114 72.1635 495.384C72.1097 493.465 72.04 491.008 71.9567 488.065C71.7983 481.886 71.5556 473.355 71.1425 463.936C70.7269 454.514 70.2196 445.992 69.8343 439.822C69.6592 436.883 69.5124 434.431 69.3977 432.514C69.3083 430.786 69.29 429.828 69.3583 429.822C69.4275 429.817 69.575 430.764 69.7848 432.481C69.9968 434.198 70.2545 436.688 70.5368 439.769C71.102 445.929 71.7217 454.457 72.1373 463.891C72.5509 473.324 72.6832 481.872 72.6603 488.057C72.6504 491.152 72.6114 493.655 72.5515 495.384C72.4936 497.114 72.4291 498.069 72.3603 498.069" fill="#17282F"/>
<path d="M41.797 462.044C41.7742 462.319 40.0789 462.403 38.0106 462.233C35.9414 462.063 34.2825 461.704 34.3054 461.429C34.3283 461.156 36.0226 461.071 38.0918 461.24C40.1601 461.409 41.8194 461.771 41.797 462.044" fill="#17282F"/>
<path d="M42.3787 451.516C42.2667 451.768 40.8042 451.363 39.1126 450.612C37.4198 449.862 36.1375 449.05 36.2495 448.797C36.361 448.547 37.8235 448.951 39.5162 449.703C41.2079 450.452 42.4902 451.265 42.3787 451.516Z" fill="#17282F"/>
<path d="M47.7956 443.702C47.6528 443.929 46.0086 443.155 44.3003 441.736C42.5867 440.322 41.5186 438.852 41.717 438.669C41.9211 438.477 43.2763 439.602 44.9352 440.969C46.5878 442.341 47.9462 443.464 47.7956 443.702Z" fill="#17282F"/>
<path d="M53.2435 436.328C52.9925 436.438 52.2045 435.208 51.4847 433.579C50.7638 431.947 50.3842 430.537 50.6358 430.425C50.8873 430.314 51.6753 431.545 52.3951 433.174C53.1154 434.805 53.4957 436.216 53.2435 436.328" fill="#17282F"/>
<path d="M61.7905 431.096C61.5457 431.21 60.6967 429.9 60.1342 428.083C59.5665 426.268 59.5222 424.708 59.7894 424.661C60.0643 424.614 60.5383 426.041 61.0862 427.786C61.6258 429.536 62.0451 430.98 61.7905 431.096" fill="#17282F"/>
<path d="M76.0542 425.198C76.3141 425.289 76.1553 426.409 75.7012 427.698C75.246 428.988 74.6673 429.957 74.4074 429.867C74.148 429.775 74.3064 428.656 74.7616 427.367C75.2157 426.077 75.7954 425.107 76.0542 425.198Z" fill="#17282F"/>
<path d="M86.6344 429.739C86.8208 429.94 86.1421 430.873 85.1188 431.82C84.0948 432.768 83.1136 433.372 82.926 433.169C82.739 432.968 83.4182 432.036 84.4421 431.088C85.4656 430.141 86.4473 429.537 86.6344 429.739Z" fill="#17282F"/>
<path d="M95.949 435.752C96.1032 435.98 95.2752 436.81 94.1006 437.605C92.9252 438.403 91.8474 438.863 91.6933 438.636C91.5391 438.408 92.3662 437.577 93.5422 436.781C94.7167 435.986 95.7949 435.526 95.949 435.752" fill="#17282F"/>
<path d="M102.561 444.72C102.67 444.975 101.365 445.772 99.6478 446.505C97.9311 447.238 96.452 447.626 96.3442 447.374C96.2359 447.12 97.5406 446.321 99.2572 445.589C100.974 444.857 102.454 444.468 102.561 444.72" fill="#17282F"/>
<path d="M105.165 454.501C105.199 454.774 103.873 455.163 102.202 455.371C100.53 455.577 99.1492 455.524 99.1154 455.251C99.0815 454.979 100.408 454.589 102.08 454.383C103.75 454.175 105.132 454.228 105.165 454.501" fill="#17282F"/>
<path d="M106.521 466.541C106.411 466.793 104.997 466.423 103.363 465.712C101.728 465 100.493 464.22 100.602 463.968C100.712 463.716 102.126 464.088 103.761 464.797C105.395 465.508 106.63 466.289 106.521 466.541Z" fill="#17282F"/>
<path d="M105.328 476.872C105.241 477.123 103.453 476.697 101.585 475.471C99.7105 474.252 98.6037 472.786 98.7991 472.605C99.0017 472.405 100.359 473.488 102.13 474.638C103.892 475.797 105.429 476.605 105.328 476.872Z" fill="#17282F"/>
<path d="M99.9489 486.277C99.7849 486.492 98.3615 485.656 96.9964 484.18C95.6255 482.709 94.8973 481.229 95.1224 481.081C95.3547 480.924 96.4136 482.096 97.726 483.501C99.0323 484.915 100.123 486.057 99.9489 486.277" fill="#17282F"/>
<path d="M48.8714 487.383C48.999 487.625 47.5042 488.656 45.535 489.681C43.5641 490.708 41.8641 491.34 41.7375 491.097C41.6105 490.852 43.1037 489.824 45.0746 488.797C47.0449 487.772 48.7454 487.138 48.8714 487.383Z" fill="#17282F"/>
<path d="M44.2067 478.875C44.3196 479.125 43.1212 479.914 41.5301 480.635C39.9384 481.357 38.5561 481.739 38.4431 481.488C38.3291 481.237 39.5269 480.449 41.1187 479.727C42.7103 479.005 44.0925 478.624 44.2067 478.875Z" fill="#17282F"/>
<path d="M40.7762 471.34C40.8142 471.612 39.3398 472.048 37.4825 472.312C35.6242 472.575 34.0871 472.567 34.0486 472.295C34.0095 472.023 35.4846 471.588 37.3423 471.325C39.2007 471.061 40.7377 471.068 40.7762 471.34" fill="#17282F"/>
<path d="M52.0254 467.188C52.1078 467.443 50.6687 468.115 48.7504 468.328C46.8311 468.549 45.2796 468.216 45.3015 467.947C45.3207 467.665 46.8212 467.549 48.6384 467.339C50.4551 467.139 51.9447 466.917 52.0254 467.188" fill="#17282F"/>
<path d="M61.3705 457.888C61.4518 458.147 60.3065 458.726 58.7622 458.875C57.218 459.029 55.9825 458.684 56.0122 458.416C56.0382 458.138 57.23 458.029 58.6648 457.883C60.1002 457.747 61.2904 457.62 61.3705 457.888Z" fill="#17282F"/>
<path d="M63.1566 450.44C63.0664 450.702 61.8268 450.508 60.3883 450.01C58.9492 449.514 57.8555 448.898 57.9456 448.64C58.0352 448.38 59.2748 448.572 60.7138 449.069C62.1524 449.567 63.2462 450.18 63.1566 450.44" fill="#17282F"/>
<path d="M66.5824 442.908C66.3919 443.098 65.5397 442.537 64.9329 441.481C64.322 440.426 64.2627 439.408 64.5231 439.337C64.7928 439.261 65.2512 440.049 65.796 440.983C66.3324 441.922 66.7851 442.714 66.5824 442.908" fill="#17282F"/>
<path d="M62.4526 473.748C62.5177 474.015 61.4442 474.507 60.0557 474.847C59.2535 475.043 58.5213 475.145 58.0411 475.143L57.8447 474.562C58.2041 474.496 58.4363 474.512 58.4827 474.617C58.5297 474.724 58.3833 474.905 58.0921 475.126L57.8953 474.545C58.3197 474.323 59.0166 474.075 59.8193 473.879C61.2078 473.54 62.3869 473.481 62.4526 473.748" fill="#17282F"/>
<path d="M64.3783 486.953C64.4783 487.21 63.11 487.987 61.322 488.69C59.5329 489.392 58.0017 489.755 57.9007 489.498C57.8007 489.243 59.1684 488.465 60.9575 487.763C62.746 487.059 64.2772 486.698 64.3783 486.953" fill="#17282F"/>
<path d="M53.8213 481.086C53.9098 481.348 52.9969 481.893 51.7828 482.307C50.5682 482.719 49.512 482.844 49.4234 482.584C49.3349 482.324 50.2469 481.776 51.462 481.364C52.676 480.951 53.7328 480.827 53.8213 481.086Z" fill="#17282F"/>
<path d="M54.6285 454.207C54.5654 454.469 52.9758 454.312 51.14 453.66C49.3029 453.011 47.9692 452.132 48.0862 451.888C48.205 451.636 49.6889 452.091 51.4728 452.72C53.2545 453.355 54.6946 453.936 54.6285 454.207" fill="#17282F"/>
<path d="M80.1748 451.284C80.3257 451.514 79.4309 452.371 78.1763 453.198C76.9205 454.027 75.7804 454.51 75.6289 454.281C75.4779 454.051 76.3727 453.195 77.6279 452.367C78.8831 451.54 80.0227 451.053 80.1748 451.284" fill="#17282F"/>
<path d="M81.5637 464.545C81.6194 464.815 80.6788 465.238 79.4632 465.491C78.248 465.743 77.2168 465.728 77.1605 465.459C77.1053 465.191 78.0454 464.768 79.261 464.515C80.4772 464.263 81.5074 464.276 81.5637 464.545Z" fill="#17282F"/>
<path d="M83.1776 479.458C83.062 479.707 81.7078 479.326 80.1541 478.605C78.5994 477.886 77.4333 477.1 77.5484 476.851C77.6636 476.602 79.0177 476.983 80.5724 477.703C82.1265 478.422 83.2932 479.208 83.1776 479.458" fill="#17282F"/>
<path d="M79.7616 493.974C79.5485 494.15 78.6698 493.431 77.798 492.369C76.9256 491.308 76.3913 490.307 76.6037 490.131C76.8162 489.956 77.696 490.674 78.5673 491.737C79.4392 492.798 79.9736 493.8 79.7616 493.974Z" fill="#17282F"/>
<path d="M79.063 441.519C79.2306 441.731 78.6504 442.463 77.6545 442.96C76.6603 443.461 75.727 443.491 75.6567 443.228C75.5816 442.959 76.3108 442.524 77.2078 442.069C78.1078 441.621 78.8926 441.297 79.063 441.519" fill="#17282F"/>
<path d="M91.581 454.895C91.6728 455.15 90.5138 455.786 88.9301 456.003C87.3452 456.227 86.0577 455.929 86.0764 455.66C86.0916 455.381 87.3165 455.226 88.7925 455.016C90.2692 454.816 91.4905 454.629 91.581 454.895Z" fill="#17282F"/>
<path d="M89.0866 442.886C89.2085 443.129 88.0585 443.949 86.4231 444.469C84.7893 444.995 83.3762 444.993 83.3366 444.727C83.2918 444.449 84.5669 444.021 86.1199 443.52C87.6747 443.027 88.9627 442.637 89.0866 442.886" fill="#17282F"/>
<path d="M94.3137 473.492C94.3101 473.76 92.344 473.935 89.9716 473.498C87.5971 473.074 85.8169 472.219 85.9081 471.968C85.9997 471.702 87.8596 472.108 90.1492 472.519C92.4361 472.939 94.3221 473.209 94.3137 473.492" fill="#17282F"/>
<path d="M89.6623 490.935C89.4967 491.148 88.0482 490.295 86.6045 488.84C85.155 487.388 84.3091 485.937 84.5238 485.772C84.7441 485.6 85.9091 486.735 87.3102 488.137C88.7061 489.545 89.8353 490.715 89.6623 490.935Z" fill="#17282F"/>
<path d="M69.207 428.695C69.3549 428.908 65.2357 430.579 60.4748 435.596C55.7164 440.501 50.8065 449.168 49.5976 459.639C49.019 464.841 49.5158 469.877 50.2538 474.371C51.0314 478.87 52.0628 482.864 53.0133 486.192C53.969 489.52 54.847 492.187 55.4361 494.036C56.0273 495.883 56.3429 496.912 56.2752 496.938C56.2137 496.959 55.7752 495.976 55.071 494.164C54.3685 492.353 53.3861 489.716 52.3393 486.395C51.297 483.076 50.1861 479.07 49.3497 474.528C48.5533 469.991 48.0142 464.875 48.6085 459.523C49.8429 448.812 54.9809 439.986 59.968 435.105C62.4492 432.627 64.7814 430.974 66.4825 430.015C67.3081 429.493 68.0216 429.215 68.4768 428.98C68.9414 428.763 69.1918 428.663 69.207 428.695" fill="#17282F"/>
<path d="M82.7908 497.576C82.5747 497.468 85.0293 493.69 87.2679 486.879C89.5736 480.152 91.4804 470.19 89.9449 459.369C89.2261 453.975 87.6657 448.975 85.7028 444.702C83.6652 440.486 81.0392 437.035 78.4699 434.627C75.8132 432.277 73.2028 430.929 71.3824 430.148C69.5408 429.38 68.4371 429.2 68.4528 429.115C68.458 429.084 68.7376 429.098 69.2668 429.179C69.7913 429.275 70.5637 429.448 71.5225 429.786C73.4256 430.474 76.1293 431.741 78.9345 434.097C81.6668 436.536 84.3783 439.98 86.5308 444.304C88.5845 448.652 90.1975 453.733 90.9313 459.231C92.4944 470.253 90.4356 480.368 87.9335 487.108C87.3709 488.828 86.6471 490.304 86.1075 491.631C85.4657 492.916 84.9365 494.033 84.4501 494.917C83.4365 496.664 82.8507 497.609 82.7908 497.576Z" fill="#17282F"/>
<path d="M44.2065 495.22H99.1153L99.4524 506.21H44.2065V495.22Z" fill="#57BAF2"/>
<path d="M48.8711 500.716L52.0252 534.265H92.168L95.3919 501.084L48.8711 500.716" fill="#57BAF2"/>
<path d="M99.4526 506.343C99.4526 506.617 87.0874 506.84 71.8379 506.84C56.5827 506.84 44.2202 506.617 44.2202 506.343C44.2202 506.067 56.5827 505.844 71.8379 505.844C87.0874 505.844 99.4526 506.067 99.4526 506.343Z" fill="#17282F"/>
<path d="M93.8734 516.562C93.9264 516.595 93.5562 517.365 92.6972 518.659C91.8354 519.944 90.465 521.751 88.4384 523.686L88.1859 523.929L87.9363 523.667C85.2926 520.892 81.6598 517.493 77.1754 514.247L77.7827 514.22C76.2499 515.565 74.652 516.968 73.0119 518.408C71.0619 520.105 69.1728 521.751 67.3718 523.319L67.0603 523.591L66.7468 523.327C63.3275 520.452 60.2182 517.838 57.5791 515.619L58.113 515.562C56.2192 517.872 54.6286 519.814 53.3692 521.348C52.2275 522.704 51.566 523.433 51.5072 523.386C51.4483 523.34 51.9983 522.524 53.04 521.091C54.2296 519.5 55.7322 517.492 57.5223 515.098L57.751 514.792L58.0562 515.041C60.7348 517.212 63.8911 519.771 67.3608 522.584L66.7374 522.593C68.5316 521.017 70.4135 519.364 72.3556 517.659C74.0015 516.224 75.6035 514.827 77.142 513.488L77.4363 513.231L77.7499 513.462C82.2696 516.783 85.8848 520.297 88.4587 523.185L87.9567 523.164C92.0302 519.469 93.7155 516.441 93.8734 516.562" fill="#17282F"/>
<path d="M753.627 525.056H172.399C161.672 525.056 152.976 516.362 152.976 505.634V134.431C152.976 123.704 161.672 115.008 172.399 115.008H753.627C764.353 115.008 773.049 123.704 773.049 134.431V505.634C773.049 516.362 764.353 525.056 753.627 525.056Z" fill="#33535F"/>
<path d="M780.749 534.453H156.405C143.3 534.453 132.675 523.828 132.675 510.722V498.575H804.48V510.722C804.48 523.828 793.855 534.453 780.749 534.453Z" fill="#33535F"/>
<path d="M401.885 494.729L410.223 507.991H527.528L535.268 494.729H401.885Z" fill="#17282F"/>
<path d="M767.721 494.728C767.721 494.95 630.095 495.131 460.363 495.131C290.572 495.131 152.976 494.95 152.976 494.728C152.976 494.507 290.572 494.326 460.363 494.326C630.095 494.326 767.721 494.507 767.721 494.728Z" fill="#17282F"/>
<path d="M748.503 483.886H175.097C172.687 483.886 170.732 481.933 170.732 479.523V142.951C170.732 140.54 172.685 138.587 175.096 138.587H748.503C750.913 138.587 752.867 140.54 752.867 142.951V479.524C752.867 481.933 750.913 483.886 748.503 483.886Z" fill="#E7E8E5"/>
<path d="M752.244 484.392H170.109L170.732 164.392H752.244V484.392Z" fill="white"/>
<path d="M218.476 151.923C218.476 154.491 216.395 156.572 213.827 156.572C211.26 156.572 209.179 154.491 209.179 151.923C209.179 149.355 211.26 147.273 213.827 147.273C216.395 147.273 218.476 149.355 218.476 151.923Z" fill="#17282F"/>
<path d="M190.299 151.923C190.299 154.491 188.219 156.572 185.649 156.572C183.083 156.572 181 154.491 181 151.923C181 149.355 183.083 147.273 185.649 147.273C188.219 147.273 190.299 149.355 190.299 151.923Z" fill="#17282F"/>
<path d="M203.824 151.923C203.824 154.491 201.743 156.572 199.175 156.572C196.607 156.572 194.525 154.491 194.525 151.923C194.525 149.355 196.607 147.273 199.175 147.273C201.743 147.273 203.824 149.355 203.824 151.923Z" fill="#17282F"/>
<path d="M752.867 484.392H170.109V453.493H752.867V484.392Z" fill="#17282F"/>
<path d="M192.125 472.519V473.508H187.485V472.725L189.987 470.35C190.597 469.768 190.705 469.397 190.705 469.048C190.705 468.473 190.309 468.14 189.536 468.14C188.924 468.14 188.411 468.345 188.061 468.796L187.243 468.165C187.728 467.509 188.601 467.122 189.635 467.122C191.001 467.122 191.883 467.814 191.883 468.931C191.883 469.541 191.713 470.1 190.84 470.919L189.159 472.519H192.125" fill="white"/>
<path d="M192.759 472.825C192.759 472.375 193.091 472.079 193.495 472.079C193.9 472.079 194.233 472.375 194.233 472.825C194.233 473.256 193.9 473.571 193.495 473.571C193.091 473.571 192.759 473.256 192.759 472.825ZM192.759 469.397C192.759 468.948 193.091 468.652 193.495 468.652C193.9 468.652 194.233 468.948 194.233 469.397C194.233 469.828 193.9 470.144 193.495 470.144C193.091 470.144 192.759 469.828 192.759 469.397Z" fill="white"/>
<path d="M197.161 467.212V473.508H195.993V468.193H194.663V467.212H197.161Z" fill="white"/>
<path d="M204.021 472.079H202.905V473.508H201.772V472.079H198.318V471.269L201.421 467.212H202.672L199.748 471.089H201.808V469.821H202.905V471.089H204.021V472.079Z" fill="white"/>
<path d="M691.957 471.739H214.307V469.561H691.957V471.739Z" fill="white"/>
<path d="M363.215 473.024H213.949V467.216H363.215V473.024Z" fill="#F2575D"/>
<path d="M368.033 470.652C368.033 474.664 364.78 477.919 360.767 477.919C356.753 477.919 353.499 474.664 353.499 470.652C353.499 466.639 356.753 463.384 360.767 463.384C364.78 463.384 368.033 466.639 368.033 470.652Z" fill="#F2575D"/>
<path d="M702.855 470.635C702.855 469.979 702.36 469.565 701.596 469.565C700.84 469.565 700.319 470.024 700.319 470.645C700.319 471.237 700.785 471.705 701.623 471.705C702.351 471.705 702.855 471.291 702.855 470.635ZM703.987 470.58C703.987 471.832 702.971 472.624 701.685 472.624C699.968 472.624 698.96 471.517 698.96 469.493C698.96 467.333 700.219 466.148 702.044 466.148C702.675 466.148 703.277 466.281 703.7 466.551L703.268 467.433C702.927 467.208 702.513 467.127 702.072 467.127C700.884 467.127 700.139 467.865 700.139 469.295V469.305C700.516 468.864 701.119 468.648 701.82 468.648C703.061 468.648 703.987 469.403 703.987 470.58" fill="white"/>
<path d="M704.556 471.85C704.556 471.398 704.886 471.104 705.293 471.104C705.697 471.104 706.03 471.398 706.03 471.85C706.03 472.28 705.697 472.596 705.293 472.596C704.886 472.596 704.556 472.28 704.556 471.85ZM704.556 468.422C704.556 467.974 704.886 467.675 705.293 467.675C705.697 467.675 706.03 467.974 706.03 468.422C706.03 468.853 705.697 469.168 705.293 469.168C704.886 469.168 704.556 468.853 704.556 468.422Z" fill="white"/>
<path d="M710.867 469.385C710.867 467.865 710.273 467.163 709.409 467.163C708.555 467.163 707.961 467.865 707.961 469.385C707.961 470.905 708.555 471.605 709.409 471.605C710.273 471.605 710.867 470.905 710.867 469.385ZM706.783 469.385C706.783 467.317 707.916 466.148 709.409 466.148C710.912 466.148 712.044 467.317 712.044 469.385C712.044 471.452 710.912 472.624 709.409 472.624C707.916 472.624 706.783 471.452 706.783 469.385Z" fill="white"/>
<path d="M716.912 469.385C716.912 467.865 716.32 467.163 715.454 467.163C714.6 467.163 714.006 467.865 714.006 469.385C714.006 470.905 714.6 471.605 715.454 471.605C716.32 471.605 716.912 470.905 716.912 469.385ZM712.828 469.385C712.828 467.317 713.961 466.148 715.454 466.148C716.957 466.148 718.09 467.317 718.09 469.385C718.09 471.452 716.957 472.624 715.454 472.624C713.961 472.624 712.828 471.452 712.828 469.385Z" fill="white"/>
<path d="M728.261 468.993H726.084V462.716H732.349V464.893H728.261V468.993" fill="white"/>
<path d="M732.354 477.188H726.077V470.922H728.254V475.009H732.354V477.188" fill="white"/>
<path d="M742.353 477.188H736.086V475.009H740.174V470.908H742.353V477.188Z" fill="white"/>
<path d="M742.358 468.981H740.181V464.893H736.081V462.716H742.358V468.981Z" fill="white"/>
<path d="M249.939 183.42H215.627L198.471 213.135L215.627 242.849H249.939L267.095 213.135L249.939 183.42Z" fill="#E7E8E5"/>
<path d="M218.427 218.951C216.893 217.253 215.347 215.537 214.229 213.543C213.112 211.547 212.445 209.217 212.816 206.96C213.032 205.64 213.593 204.383 213.681 203.048C213.804 201.212 213.032 199.293 213.684 197.572C214.701 194.881 218.323 194.465 220.519 192.607C222.228 191.16 223.061 188.811 224.941 187.593C226.585 186.529 228.696 186.552 230.633 186.827C232.572 187.101 234.521 187.591 236.461 187.329C237.844 187.143 239.147 186.584 240.501 186.248C241.855 185.913 243.367 185.825 244.572 186.525C245.779 187.227 246.456 188.939 245.665 190.089C247.913 189.052 250.768 190.804 251.384 193.201C251.999 195.6 250.767 198.189 248.863 199.771C246.959 201.352 244.495 202.087 242.063 202.545C235.176 203.844 227.705 203.111 221.771 199.384" fill="#17282F"/>
<path d="M250.238 226.284C250.008 222.031 248.817 213.313 247.649 205.433C246.392 196.959 238.84 190.869 230.292 191.44L229.442 191.497C220.321 192.645 216.2 201.032 217.598 210.119L220.277 242.849H242.537L242.008 237.051C242.008 237.051 250.718 235.093 250.238 226.284Z" fill="#F8A58D"/>
<path d="M242.013 236.923C242.013 236.923 236.483 237.747 230.321 234.429C230.321 234.429 233.457 240.581 242.187 239.201L242.013 236.923Z" fill="#F68260"/>
<path d="M244.816 212.984C244.883 213.645 244.379 214.249 243.688 214.332C242.999 214.416 242.385 213.948 242.317 213.287C242.249 212.624 242.753 212.02 243.443 211.936C244.132 211.853 244.748 212.321 244.816 212.984Z" fill="#17282F"/>
<path d="M246.044 209.86C245.9 210.035 244.9 209.393 243.548 209.488C242.196 209.563 241.249 210.325 241.092 210.169C241.014 210.101 241.153 209.795 241.565 209.451C241.969 209.108 242.674 208.756 243.517 208.703C244.36 208.651 245.089 208.913 245.517 209.204C245.956 209.495 246.116 209.783 246.044 209.86" fill="#17282F"/>
<path d="M232.038 213.897C232.106 214.559 231.601 215.163 230.91 215.245C230.222 215.329 229.608 214.861 229.54 214.2C229.472 213.537 229.977 212.933 230.665 212.849C231.356 212.767 231.97 213.235 232.038 213.897Z" fill="#17282F"/>
<path d="M232.765 211.003C232.621 211.177 231.621 210.536 230.269 210.631C228.917 210.704 227.971 211.467 227.813 211.311C227.736 211.243 227.875 210.936 228.287 210.592C228.691 210.251 229.396 209.897 230.239 209.844C231.081 209.793 231.811 210.055 232.24 210.345C232.676 210.637 232.837 210.924 232.765 211.003Z" fill="#17282F"/>
<path d="M238.347 220.706C238.335 220.628 239.165 220.427 240.516 220.162C240.859 220.103 241.181 220.012 241.224 219.772C241.288 219.518 241.119 219.155 240.925 218.764C240.544 217.951 240.145 217.098 239.728 216.203C238.059 212.554 236.825 209.543 236.973 209.478C237.121 209.411 238.593 212.316 240.263 215.966C240.665 216.866 241.051 217.724 241.417 218.546C241.575 218.93 241.829 219.359 241.687 219.888C241.612 220.154 241.371 220.358 241.153 220.432C240.936 220.515 240.743 220.531 240.572 220.552C239.207 220.718 238.356 220.782 238.347 220.706Z" fill="#17282F"/>
<path d="M232.761 205.679C232.652 206.055 231.291 205.971 229.716 206.269C228.136 206.535 226.888 207.084 226.655 206.769C226.551 206.617 226.751 206.256 227.244 205.865C227.733 205.476 228.529 205.083 229.475 204.913C230.42 204.745 231.303 204.839 231.896 205.035C232.493 205.231 232.807 205.5 232.761 205.679" fill="#17282F"/>
<path d="M245.285 205.98C245.068 206.303 244.115 206.047 242.993 206.105C241.871 206.127 240.937 206.451 240.699 206.144C240.592 205.995 240.72 205.677 241.116 205.359C241.505 205.041 242.172 204.759 242.944 204.731C243.715 204.704 244.401 204.937 244.812 205.225C245.229 205.515 245.38 205.823 245.285 205.98Z" fill="#17282F"/>
<path d="M218.754 216.588C218.6 216.532 212.586 215.204 213.181 221.208C213.776 227.212 220.284 225.255 220.277 225.081C220.269 224.909 218.754 216.588 218.754 216.588" fill="#F8A58D"/>
<path d="M217.616 223.109C217.588 223.093 217.519 223.193 217.349 223.292C217.185 223.388 216.895 223.472 216.569 223.385C215.912 223.215 215.279 222.261 215.141 221.183C215.072 220.637 215.136 220.105 215.287 219.656C215.427 219.199 215.68 218.863 215.993 218.775C216.304 218.669 216.549 218.839 216.64 219C216.736 219.16 216.709 219.284 216.743 219.291C216.761 219.304 216.863 219.177 216.789 218.935C216.752 218.819 216.668 218.684 216.515 218.581C216.36 218.479 216.141 218.44 215.921 218.487C215.461 218.564 215.088 219.031 214.921 219.525C214.731 220.024 214.647 220.623 214.724 221.235C214.883 222.44 215.615 223.512 216.508 223.677C216.94 223.745 217.28 223.583 217.448 223.423C217.62 223.256 217.637 223.119 217.616 223.109" fill="#F68260"/>
<path d="M247.204 197.212C246.792 199.601 241.944 201.791 237.925 201.675C234.22 201.567 232.389 199.728 229.697 198.421C227.993 197.595 227.993 197.595 225.68 197.969C223.811 198.273 222.841 200.48 221.792 202.056C223.791 206.416 222.983 211.485 222.135 216.205C222.041 216.727 221.925 217.291 221.527 217.64C220.852 218.236 219.759 217.879 219.095 217.271C218.032 216.299 217.547 214.855 217.199 213.457C216.405 210.272 216.1 206.937 216.604 203.693C217.108 200.449 218.451 197.299 220.667 194.877C223.436 191.852 227.485 190.107 231.581 189.896C235.679 189.687 239.792 190.953 243.224 193.201C244.816 194.244 246.304 195.533 247.204 197.212" fill="#17282F"/>
<path d="M239.23 223.745C238.209 223.271 237.19 222.795 236.17 222.319C235.993 222.237 235.805 222.153 235.613 222.179C235.397 222.208 235.222 222.369 235.084 222.539C234.374 223.399 234.194 224.696 234.744 225.665C235.293 226.636 236.586 227.148 237.617 226.721C238.701 226.272 239.229 225.012 239.313 223.841L239.23 223.745Z" fill="#F68260"/>
<path d="M237.712 226.937C237.76 226.997 237.073 227.429 235.919 227.099C235.361 226.932 234.725 226.503 234.332 225.809C233.931 225.135 233.783 224.168 234.129 223.3C234.296 222.869 234.555 222.489 234.871 222.188C235.032 222.036 235.195 221.913 235.392 221.799C235.585 221.655 236 221.633 236.197 221.751C236.897 222.14 237.369 222.472 237.839 222.773C238.736 223.368 239.265 223.777 239.217 223.86C239.169 223.943 238.551 223.684 237.592 223.197C237.033 222.907 236.493 222.624 235.959 222.344C235.831 222.311 235.844 222.309 235.721 222.373C235.6 222.451 235.459 222.56 235.344 222.677C235.105 222.915 234.907 223.215 234.779 223.548C234.512 224.219 234.603 224.943 234.893 225.503C235.18 226.068 235.643 226.441 236.091 226.639C237.009 227.033 237.695 226.827 237.712 226.937" fill="#17282F"/>
<path d="M236.747 213.135C236.68 213.137 236.687 212.576 236.42 211.636C236.155 210.715 235.513 209.372 234.121 208.345C232.775 207.316 230.573 206.748 228.449 207.547C226.344 208.277 224.529 210.52 224.553 213.133C224.529 215.748 226.343 217.991 228.449 218.723C230.573 219.521 232.776 218.953 234.121 217.923C235.513 216.897 236.155 215.555 236.42 214.632C236.687 213.692 236.68 213.132 236.747 213.135C236.771 213.135 236.788 213.272 236.796 213.539C236.811 213.804 236.785 214.2 236.681 214.699C236.487 215.68 235.885 217.151 234.42 218.313C233.005 219.477 230.599 220.173 228.232 219.325C225.884 218.551 223.831 216.059 223.859 213.133C223.831 210.209 225.884 207.717 228.232 206.944C230.599 206.096 233.004 206.791 234.419 207.955C235.884 209.117 236.487 210.589 236.681 211.571C236.785 212.068 236.811 212.465 236.796 212.731C236.788 212.996 236.771 213.135 236.747 213.135" fill="#17282F"/>
<path d="M251.721 212.547C251.655 212.548 251.661 212.001 251.4 211.087C251.141 210.189 250.516 208.883 249.16 207.884C247.849 206.883 245.705 206.332 243.64 207.108C241.591 207.821 239.825 210.001 239.848 212.545C239.825 215.089 241.591 217.271 243.64 217.984C245.707 218.761 247.849 218.209 249.16 217.208C250.516 216.209 251.141 214.903 251.4 214.005C251.661 213.089 251.655 212.544 251.721 212.547C251.745 212.547 251.763 212.68 251.772 212.94C251.787 213.199 251.763 213.585 251.661 214.071C251.473 215.028 250.887 216.463 249.459 217.599C248.079 218.735 245.732 219.413 243.421 218.585C241.131 217.832 239.127 215.399 239.155 212.545C239.128 209.692 241.132 207.26 243.421 206.507C245.732 205.679 248.079 206.357 249.457 207.493C250.887 208.629 251.473 210.064 251.661 211.021C251.763 211.507 251.787 211.893 251.772 212.152C251.763 212.412 251.745 212.547 251.721 212.547Z" fill="#17282F"/>
<path d="M239.501 211.163C239.365 211.291 238.771 210.907 237.969 210.932C237.167 210.932 236.591 211.34 236.448 211.219C236.264 211.123 236.824 210.257 237.957 210.239C239.089 210.221 239.679 211.059 239.501 211.163" fill="#17282F"/>
<path d="M224.584 212.243C224.699 212.398 223.535 213.461 221.984 214.619C220.432 215.776 219.081 216.591 218.967 216.438C218.852 216.283 220.016 215.22 221.568 214.062C223.119 212.904 224.469 212.09 224.584 212.243" fill="#17282F"/>
<path d="M348.339 212.832C348.339 213.023 332.913 213.179 313.891 213.179C294.861 213.179 279.44 213.023 279.44 212.832C279.44 212.64 294.861 212.485 313.891 212.485C332.913 212.485 348.339 212.64 348.339 212.832Z" fill="#17282F"/>
<path d="M316.476 220.043C316.476 220.233 308.285 220.389 298.184 220.389C288.079 220.389 279.891 220.233 279.891 220.043C279.891 219.851 288.079 219.695 298.184 219.695C308.285 219.695 316.476 219.851 316.476 220.043Z" fill="#17282F"/>
<path d="M554.749 266.105C554.749 266.105 573.061 275.028 579.492 298.065C585.924 321.105 605.619 381.103 605.619 381.103C605.619 381.103 616.872 394.343 618.079 404.15C619.284 413.953 616.872 437.668 613.256 442.089C609.639 446.51 604.48 445.779 604.48 445.779L557.108 441.286L538.455 316.384L554.749 266.105" fill="#57BAF2"/>
<path d="M398.099 263.923C398.099 263.923 364.228 274.547 355.788 283.791L383.521 412.815L383.079 453.524H543.661C543.661 451.514 545.103 318.359 545.103 318.359L554.749 266.106L497.673 256.056L486.419 247.214L422.912 250.43L413.265 260.076L398.099 263.923Z" fill="#57BAF2"/>
<path d="M383.193 438.086L383.305 432.673L383.247 438.041C383.229 438.056 383.212 438.071 383.193 438.086" fill="#A7A9A8"/>
<path d="M383.247 438.041L383.305 432.674L383.604 418.276C392.583 405.44 399.483 391.856 404.7 377.088C405.307 375.369 406.453 373.292 408.145 373.292C408.288 373.292 408.435 373.307 408.585 373.337C409.763 373.58 410.469 374.763 410.964 375.857C416.003 387.007 413.72 400.408 407.753 411.089C401.797 421.75 392.589 430.176 383.247 438.041" fill="#0D98E7"/>
<path d="M355.788 283.791C355.788 283.791 344.627 299.005 339.992 308.936C335.357 318.868 296.957 402.289 294.64 410.896C292.324 419.503 286.364 446.648 303.909 452.938H339.992L376.209 379.704L378.061 294.703L355.788 283.791Z" fill="#57BAF2"/>
<path d="M342.303 400.036C342.255 400.091 341.499 399.325 339.837 398.38C338.179 397.443 335.603 396.367 332.263 395.637C330.597 395.272 328.744 394.988 326.743 394.863C324.743 394.736 322.595 394.773 320.415 395.273C316.037 396.249 311.688 399.015 308.267 402.898C304.792 406.78 302.649 411.363 301.388 415.686C300.109 420.021 299.563 424.084 299.219 427.492C298.88 430.904 298.755 433.683 298.636 435.602C298.58 436.497 298.533 437.229 298.497 437.81C298.459 438.316 298.427 438.581 298.403 438.58C298.379 438.58 298.364 438.314 298.357 437.807C298.36 437.224 298.363 436.492 298.367 435.592C298.401 433.668 298.453 430.884 298.729 427.447C299.013 424.017 299.512 419.914 300.775 415.507C302.016 411.116 304.192 406.407 307.747 402.44C311.247 398.463 315.737 395.624 320.275 394.651C322.537 394.148 324.759 394.135 326.781 394.287C328.815 394.44 330.691 394.757 332.373 395.159C335.744 395.959 338.332 397.123 339.975 398.148C340.795 398.665 341.389 399.132 341.764 399.476C342.135 399.827 342.32 400.019 342.303 400.036" fill="#17282F"/>
<path d="M325.192 385.455C325.188 385.407 325.619 385.339 326.405 385.26C327.191 385.163 328.339 385.14 329.752 385.214C331.168 385.275 332.845 385.518 334.675 385.94C336.493 386.398 338.457 387.056 340.42 387.979C342.373 388.924 344.123 390.038 345.623 391.162C347.101 392.318 348.345 393.468 349.285 394.531C350.232 395.583 350.936 396.491 351.355 397.16C351.788 397.823 352.007 398.199 351.967 398.224C351.86 398.3 350.883 396.855 348.929 394.868C347.96 393.868 346.708 392.776 345.239 391.675C343.748 390.602 342.031 389.53 340.121 388.606C338.203 387.704 336.291 387.043 334.517 386.56C332.736 386.114 331.101 385.827 329.713 385.703C326.94 385.436 325.201 385.586 325.192 385.455" fill="#17282F"/>
<path d="M357.816 381.44C357.807 381.488 357.212 381.439 356.147 381.313C355.083 381.176 353.537 381.021 351.627 380.88C347.809 380.591 342.501 380.521 336.7 381.208C330.897 381.909 325.756 383.228 322.113 384.411C320.291 384.997 318.825 385.513 317.824 385.897C316.819 386.272 316.252 386.459 316.232 386.415C316.212 386.372 316.743 386.101 317.721 385.648C318.695 385.185 320.141 384.597 321.956 383.944C325.581 382.636 330.759 381.225 336.617 380.519C342.475 379.825 347.839 379.973 351.671 380.389C353.588 380.596 355.132 380.827 356.187 381.047C357.244 381.256 357.824 381.393 357.816 381.44" fill="#17282F"/>
<path d="M460.591 310.167C460.576 310.177 460.452 310.029 460.224 309.733C459.965 309.388 459.641 308.953 459.239 308.415C458.355 307.189 457.135 305.499 455.612 303.389C452.497 298.993 448.153 292.865 443.044 285.657L443.604 285.577C441.66 291.287 439.515 297.587 437.256 304.216L437.113 304.636L436.749 304.401C436.513 304.249 436.257 304.085 436.001 303.92C433.015 302.027 430.38 299.751 428.144 297.285C425.917 294.809 424.069 292.165 422.535 289.529C419.467 284.24 417.617 279.024 416.361 274.604C415.113 270.172 414.46 266.503 414.024 263.975C413.815 262.764 413.647 261.796 413.519 261.067C413.459 260.735 413.391 260.491 413.349 260.323C413.288 260.169 413.256 260.084 413.265 260.076C413.412 260.013 413.804 261.411 414.289 263.925C414.808 266.436 415.532 270.079 416.833 274.468C418.141 278.843 420.025 283.999 423.087 289.207C424.619 291.801 426.451 294.397 428.648 296.828C430.855 299.247 433.443 301.476 436.372 303.333C436.624 303.495 436.875 303.657 437.107 303.807L436.599 303.991C438.877 297.369 441.041 291.076 443.004 285.372L443.208 284.777L443.564 285.292C448.589 292.559 452.863 298.739 455.925 303.169C457.387 305.323 458.559 307.049 459.405 308.297C459.775 308.86 460.072 309.315 460.309 309.673C460.509 309.989 460.605 310.159 460.591 310.167" fill="#17282F"/>
<path d="M543.737 445.817C543.777 441.944 543.832 436.792 543.895 430.783C543.916 435.953 543.896 441.039 543.737 445.817Z" fill="#A7A9A8"/>
<path d="M543.737 445.823C530.096 439.607 519.149 428.024 511.676 415.029C504.204 402.035 500.911 386.676 502.397 371.76L543.983 403.743C543.701 412.204 543.86 421.627 543.895 430.783C543.832 436.792 543.777 441.944 543.737 445.817C543.737 445.82 543.737 445.821 543.737 445.823" fill="#0D98E7"/>
<path d="M500.887 354.327C500.887 354.327 495.053 355.947 499.429 367.896C503.804 379.847 505.263 379.124 508.179 390.304C511.096 401.484 514.497 411.685 519.6 418.004C524.705 424.324 543.661 437.204 543.661 437.204L560.675 421.163C560.675 421.163 557.872 409.209 558.543 401.091C559.216 392.971 560.919 373.043 560.675 369.64C560.431 366.236 556.787 357.973 556.787 357.973V352.321L548.037 325.405C548.037 325.405 543.176 323.219 541.475 330.995L538.557 322.741C538.557 322.741 533.94 322.003 532.725 331.483C531.511 340.96 533.697 354.085 533.697 354.085L531.267 370.611L527.621 381.791L524.463 382.276C524.463 382.276 519.707 380.979 517.101 372.028C514.497 363.077 507.449 352.383 500.887 354.327" fill="#F8A58D"/>
<path d="M554.979 396.603C554.96 396.603 554.933 396.392 554.9 395.989C554.868 395.525 554.827 394.937 554.776 394.208C554.689 392.577 554.568 390.324 554.417 387.515C554.155 381.712 553.791 373.636 553.367 364.208L553.441 364.404C552.661 363.469 551.265 363.191 549.999 363.507C548.711 363.819 547.559 364.62 546.845 365.819C545.36 368.211 545.277 371.327 544.813 374.333C543.891 381.145 543.012 387.632 542.211 393.544C541.807 396.496 541.379 399.307 540.804 401.907C540.244 404.511 539.457 406.88 538.695 408.995C537.941 411.117 537.276 413.039 536.865 414.768C536.448 416.493 536.283 418.021 536.316 419.268C536.367 421.779 537.096 423.052 536.987 423.08C536.965 423.089 536.825 422.771 536.58 422.148C536.379 421.515 536.097 420.553 536.044 419.277C535.971 418.007 536.1 416.441 536.487 414.68C536.869 412.917 537.508 410.968 538.231 408.835C538.965 406.704 539.709 404.369 540.241 401.784C540.787 399.205 541.191 396.409 541.577 393.457C542.361 387.544 543.221 381.055 544.125 374.241C544.339 372.721 544.503 371.221 544.768 369.725C545.037 368.239 545.451 366.744 546.268 365.453C547.045 364.143 548.405 363.18 549.847 362.856C551.267 362.499 552.968 362.809 553.939 363.985L554.012 364.073L554.016 364.181C554.34 373.613 554.617 381.693 554.817 387.499C554.889 390.311 554.948 392.567 554.989 394.2C554.997 394.931 555.004 395.52 555.008 395.985C555.007 396.389 554.997 396.601 554.979 396.603" fill="#F68260"/>
<path d="M545.677 365.975C545.636 365.992 545.365 365.457 544.96 364.453C544.561 363.448 544.03 361.971 543.536 360.097C543.04 358.224 542.578 355.953 542.314 353.4C542.184 352.125 542.092 350.763 542.241 349.341C542.386 347.935 542.805 346.439 543.708 345.175C544.476 344.079 545.573 343.205 546.82 342.84L547.081 342.764L547.213 342.999C549.677 347.345 551.818 351.183 553.322 353.941C554.013 355.235 554.594 356.323 555.065 357.205C555.462 357.976 555.661 358.408 555.624 358.429C555.588 358.449 555.317 358.059 554.854 357.325C554.334 356.471 553.694 355.417 552.933 354.164C551.322 351.464 549.108 347.671 546.62 343.337L547.013 343.495C545.941 343.816 544.973 344.581 544.274 345.576C543.457 346.719 543.065 348.08 542.917 349.417C542.765 350.757 542.838 352.081 542.95 353.339C543.177 355.861 543.581 358.111 544.012 359.979C544.44 361.848 544.897 363.335 545.214 364.363C545.54 365.388 545.725 365.956 545.677 365.975" fill="#F68260"/>
<path d="M541.61 368.161C541.562 368.163 541.509 367.611 541.453 366.612C541.406 365.467 541.349 364.052 541.281 362.383C541.166 358.809 541.056 353.875 540.977 348.421C540.936 342.975 540.724 338.021 541.193 334.433C541.421 332.645 541.777 331.221 542.104 330.271C542.429 329.316 542.694 328.824 542.728 328.837C542.849 328.877 541.986 330.941 541.681 334.485C541.342 338.016 541.63 342.956 541.67 348.412C541.75 353.864 541.782 358.801 541.772 362.376C541.753 364.048 541.736 365.461 541.722 366.608C541.696 367.608 541.657 368.161 541.61 368.161Z" fill="#F68260"/>
<path d="M527.225 412.977C527.126 412.896 528.192 411.643 529.508 409.371C530.174 408.24 530.852 406.829 531.486 405.22C532.093 403.602 532.637 401.773 533.004 399.811C533.346 397.843 533.476 395.94 533.476 394.211C533.442 392.48 533.301 390.921 533.072 389.629C532.633 387.041 532.073 385.495 532.196 385.452C532.24 385.437 532.409 385.811 532.678 386.505C532.962 387.196 533.269 388.235 533.553 389.539C533.849 390.841 534.045 392.429 534.114 394.197C534.152 395.967 534.04 397.919 533.688 399.935C533.313 401.944 532.734 403.812 532.082 405.456C531.398 407.089 530.66 408.507 529.928 409.624C529.205 410.747 528.553 411.612 528.046 412.16C527.55 412.717 527.262 413.008 527.225 412.977" fill="#F68260"/>
<path d="M557.09 404.616L571.854 409.74C571.854 409.74 585.95 402.45 595.672 409.74C605.393 417.032 613.838 436.248 611.164 444.026C611.164 444.026 604.456 452.309 599.352 453.524C594.248 454.739 574.406 449.933 566.152 448.195C557.874 446.452 543.661 437.204 543.661 437.204L557.09 404.616" fill="#F8A58D"/>
<path d="M558.904 426.368C558.857 426.369 558.802 425.903 558.746 425.06C558.688 424.06 558.617 422.875 558.537 421.493C558.38 418.481 558.177 414.317 558.114 409.708C558.045 405.097 558.177 400.916 558.456 397.901C558.586 396.393 558.752 395.179 558.902 394.345C559.054 393.512 559.16 393.056 559.208 393.063C559.317 393.081 559.086 394.931 558.945 397.936C558.793 400.94 558.741 405.1 558.81 409.699C558.893 414.205 558.969 418.279 559.028 421.479C559.044 422.988 559.041 424.211 559.017 425.055C558.989 425.9 558.952 426.368 558.904 426.368Z" fill="#F68260"/>
<path d="M607.588 409.162C607.477 409.265 605.965 407.164 602.677 404.735C599.442 402.312 594.188 399.727 587.965 399.377C581.74 399.04 576.232 401.032 572.75 403.086C569.216 405.139 567.484 407.06 567.384 406.945C567.356 406.919 567.764 406.427 568.601 405.628C569.433 404.828 570.737 403.76 572.498 402.663C575.976 400.465 581.602 398.336 588.004 398.684C594.401 399.044 599.76 401.775 602.974 404.343C604.604 405.626 605.782 406.829 606.522 407.717C607.266 408.604 607.618 409.138 607.588 409.162" fill="#17282F"/>
<path d="M605.69 396.852C605.596 396.995 603.624 395.004 599.548 393.464C595.537 391.892 589.314 391.167 582.926 392.965C579.738 393.856 576.824 395.129 574.33 396.543C571.84 397.969 569.758 399.528 568.104 400.941C566.446 402.355 565.18 403.589 564.312 404.448C563.442 405.309 562.96 405.784 562.922 405.751C562.888 405.72 563.305 405.184 564.116 404.263C564.928 403.343 566.149 402.048 567.781 400.572C569.412 399.096 571.492 397.472 574.01 395.989C576.533 394.519 579.488 393.204 582.74 392.296C589.284 390.452 595.672 391.28 599.726 393.007C601.774 393.848 603.3 394.815 604.27 395.572C604.77 395.932 605.106 396.279 605.352 396.491C605.59 396.711 605.706 396.833 605.69 396.852Z" fill="#17282F"/>
<path d="M605.813 386.183C605.775 386.32 603.195 385.531 598.907 384.949C596.765 384.645 594.193 384.476 591.339 384.471C588.485 384.512 585.349 384.747 582.1 385.301C578.857 385.889 575.828 386.74 573.132 387.675C570.449 388.655 568.089 389.692 566.181 390.709C562.349 392.717 560.193 394.34 560.112 394.224C560.084 394.185 560.609 393.768 561.591 393.044C562.076 392.673 562.683 392.239 563.424 391.789C564.159 391.333 564.977 390.775 565.948 390.276C567.845 389.195 570.211 388.097 572.913 387.073C575.631 386.093 578.695 385.213 581.981 384.617C585.271 384.056 588.449 383.837 591.339 383.829C594.228 383.871 596.825 384.095 598.979 384.464C600.061 384.601 601.02 384.847 601.868 385.024C602.717 385.193 603.436 385.395 604.019 385.576C605.188 385.924 605.825 386.136 605.813 386.183Z" fill="#17282F"/>
<path d="M492.7 255.617C492.7 255.617 493.384 256.895 493.721 259.543C494.085 262.173 494.035 266.113 493.161 270.995C492.723 273.435 492.132 276.115 491.253 278.977C490.336 281.843 488.947 284.773 487.376 287.845C484.197 293.979 480.194 300.663 475.56 307.795L475.018 308.628L475.017 307.631C475.01 302.92 475.002 297.973 474.994 292.836L475.513 293.085C471.544 296.289 467.365 299.661 463.061 303.136L463.171 302.979C460.284 312.123 458.385 322.307 457.632 332.909C456.413 349.136 457.396 364.656 458.161 378.736C458.817 392.835 459.246 405.532 459.686 416.193C460.109 426.855 460.493 435.48 460.815 441.438C460.989 444.388 461.125 446.693 461.221 448.295C461.27 449.052 461.311 449.645 461.34 450.077C461.363 450.48 461.356 450.687 461.356 450.687C461.356 450.687 461.315 450.484 461.268 450.084C461.224 449.653 461.161 449.063 461.081 448.305C460.935 446.741 460.743 444.432 460.545 441.453C460.141 435.499 459.681 426.875 459.196 416.215C458.719 405.545 458.152 392.856 457.521 378.769C456.722 364.7 455.716 349.147 456.939 332.857C457.696 322.212 459.612 311.972 462.532 302.772L462.563 302.677L462.641 302.613C466.952 299.149 471.137 295.784 475.113 292.589L475.633 292.171L475.632 292.836C475.624 297.973 475.617 302.92 475.609 307.631L475.067 307.468C484.225 293.263 491.676 280.92 492.822 270.933C493.741 266.087 493.844 262.18 493.543 259.564C493.415 258.251 493.156 257.271 492.995 256.609C492.785 255.961 492.7 255.617 492.7 255.617" fill="#17282F"/>
<path d="M468.785 427.611L468.308 427.595C466.379 427.65 464.66 429.414 464.655 431.343C464.649 433.272 466.357 435.047 468.285 435.114C470.215 435.18 472.041 433.529 472.169 431.604C472.297 429.677 470.705 427.8 468.785 427.611" fill="white"/>
<path d="M468.785 376.221L468.308 376.205C466.379 376.261 464.66 378.024 464.655 379.953C464.649 381.883 466.357 383.659 468.285 383.724C470.215 383.792 472.041 382.141 472.169 380.216C472.297 378.289 470.705 376.411 468.785 376.221Z" fill="white"/>
<path d="M468.285 330.247C470.215 330.315 472.041 328.663 472.169 326.737C472.297 324.812 470.705 322.933 468.785 322.744L468.308 322.728C466.379 322.783 464.66 324.547 464.655 326.477C464.649 328.407 466.357 330.18 468.285 330.247Z" fill="white"/>
<path d="M410.721 195.403C406.047 190.228 401.329 184.996 397.923 178.911C394.516 172.827 392.484 165.726 393.611 158.843C394.271 154.819 395.981 150.986 396.253 146.916C396.627 141.316 394.273 135.466 396.259 130.216C399.361 122.014 410.404 120.746 417.097 115.079C422.312 110.666 424.851 103.5 430.585 99.7895C435.596 96.5481 442.033 96.6188 447.941 97.4535C453.851 98.2908 459.796 99.7815 465.711 98.9855C469.927 98.4188 473.897 96.7135 478.028 95.6908C482.156 94.6681 486.764 94.3988 490.443 96.5362C494.121 98.6735 496.187 103.895 493.773 107.4C500.628 104.239 509.333 109.581 511.209 116.892C513.085 124.203 509.331 132.1 503.523 136.921C497.715 141.743 490.205 143.984 482.788 145.383C461.791 149.34 439.013 147.107 420.919 135.743" fill="#17282F"/>
<path d="M484.537 265.996C483.513 258.048 482.673 251.416 482.622 250.593C482.622 250.593 509.184 244.624 507.72 217.765C507.013 204.785 503.379 178.171 499.815 154.131C495.984 128.312 472.94 109.78 446.897 111.521L444.309 111.695C416.497 115.193 403.93 140.768 408.197 168.473L423.204 261.367C423.204 261.367 429.608 281.917 443.304 285.475L460.59 310.167L463.448 299.537L476.332 288.321C476.332 288.321 479.288 285.121 482.684 278.864C485.46 273.751 484.876 268.491 484.537 265.996" fill="#F8A58D"/>
<path d="M482.641 250.203C482.641 250.203 465.773 252.716 446.989 242.6C446.989 242.6 456.551 261.36 483.168 257.152L482.641 250.203" fill="#F68260"/>
<path d="M491.182 177.209C491.389 179.228 489.85 181.068 487.746 181.323C485.645 181.576 483.77 180.151 483.564 178.132C483.358 176.112 484.896 174.271 486.996 174.016C489.101 173.76 490.976 175.189 491.182 177.209Z" fill="#17282F"/>
<path d="M494.931 167.688C494.487 168.217 491.441 166.264 487.317 166.551C483.195 166.777 480.311 169.103 479.828 168.628C479.595 168.418 480.017 167.484 481.271 166.436C482.504 165.395 484.655 164.317 487.224 164.156C489.795 163.997 492.019 164.799 493.324 165.684C494.659 166.572 495.149 167.447 494.931 167.688" fill="#17282F"/>
<path d="M452.224 179.993C452.431 182.013 450.892 183.853 448.788 184.108C446.687 184.363 444.813 182.936 444.605 180.916C444.4 178.899 445.937 177.056 448.04 176.8C450.143 176.545 452.017 177.976 452.224 179.993" fill="#17282F"/>
<path d="M454.444 171.168C454.001 171.699 450.951 169.745 446.829 170.032C442.708 170.26 439.823 172.583 439.341 172.108C439.107 171.899 439.525 170.965 440.785 169.917C442.017 168.875 444.168 167.799 446.737 167.636C449.308 167.48 451.531 168.28 452.839 169.165C454.168 170.053 454.661 170.929 454.444 171.168Z" fill="#17282F"/>
<path d="M471.456 200.751C471.421 200.519 473.955 199.904 478.073 199.095C479.119 198.916 480.101 198.639 480.231 197.909C480.429 197.132 479.912 196.025 479.32 194.835C478.159 192.353 476.944 189.751 475.668 187.023C470.58 175.896 466.821 166.717 467.271 166.516C467.721 166.316 472.211 175.172 477.3 186.3C478.529 189.045 479.705 191.663 480.821 194.167C481.301 195.337 482.077 196.649 481.645 198.264C481.415 199.069 480.68 199.692 480.017 199.919C479.356 200.171 478.764 200.221 478.245 200.288C474.08 200.792 471.488 200.984 471.456 200.751" fill="#17282F"/>
<path d="M454.428 154.935C454.096 156.083 449.941 155.827 445.143 156.735C440.324 157.544 436.519 159.221 435.809 158.26C435.491 157.797 436.1 156.696 437.605 155.505C439.096 154.317 441.523 153.12 444.405 152.603C447.289 152.091 449.98 152.375 451.789 152.973C453.613 153.569 454.567 154.391 454.428 154.935" fill="#17282F"/>
<path d="M492.614 155.853C491.952 156.837 489.045 156.056 485.626 156.239C482.202 156.301 479.36 157.291 478.628 156.355C478.305 155.899 478.697 154.929 479.902 153.959C481.088 152.992 483.124 152.131 485.477 152.044C487.828 151.963 489.92 152.675 491.172 153.555C492.442 154.436 492.904 155.375 492.614 155.853" fill="#17282F"/>
<path d="M411.718 188.198C411.248 188.03 392.914 183.978 394.728 202.286C396.541 220.592 416.381 214.626 416.361 214.098C416.341 213.57 411.718 188.198 411.718 188.198Z" fill="#F8A58D"/>
<path d="M408.248 208.085C408.161 208.035 407.951 208.34 407.436 208.642C406.935 208.934 406.047 209.189 405.057 208.927C403.053 208.408 401.12 205.499 400.704 202.208C400.492 200.547 400.685 198.925 401.145 197.552C401.571 196.159 402.345 195.136 403.301 194.867C404.248 194.548 404.995 195.061 405.269 195.555C405.567 196.043 405.487 196.419 405.587 196.442C405.643 196.483 405.949 196.096 405.727 195.355C405.615 194.999 405.357 194.588 404.893 194.279C404.417 193.966 403.753 193.847 403.083 193.987C401.68 194.224 400.539 195.649 400.032 197.156C399.449 198.676 399.195 200.502 399.432 202.368C399.915 206.046 402.145 209.311 404.868 209.814C406.188 210.022 407.225 209.527 407.736 209.04C408.259 208.532 408.315 208.112 408.248 208.085" fill="#F68260"/>
<path d="M498.465 129.117C497.208 136.405 482.428 143.081 470.172 142.725C458.875 142.396 453.293 136.789 445.085 132.805C439.889 130.285 439.889 130.285 432.839 131.431C427.139 132.357 424.18 139.083 420.979 143.891C427.076 157.183 424.612 172.639 422.027 187.032C421.741 188.623 421.388 190.34 420.175 191.408C418.116 193.223 414.78 192.135 412.755 190.283C409.515 187.316 408.04 182.916 406.977 178.653C404.557 168.94 403.628 158.771 405.164 148.881C406.7 138.991 410.792 129.384 417.549 122.001C425.995 112.775 438.339 107.456 450.831 106.813C463.321 106.171 475.868 110.037 486.329 116.891C491.184 120.071 495.723 124.003 498.465 129.117" fill="#17282F"/>
<path d="M474.153 210.025C471.042 208.575 467.932 207.124 464.821 205.673C464.285 205.423 463.71 205.167 463.124 205.245C462.462 205.333 461.933 205.828 461.509 206.343C459.345 208.964 458.798 212.92 460.476 215.879C462.152 218.836 466.092 220.399 469.233 219.097C472.541 217.728 474.148 213.887 474.406 210.316L474.153 210.025Z" fill="#F68260"/>
<path d="M469.525 219.757C469.551 219.839 469.093 220.107 468.16 220.301C467.235 220.479 465.803 220.549 464.145 220.007C462.504 219.48 460.655 218.204 459.511 216.156C458.347 214.16 457.927 211.34 458.943 208.796C459.427 207.531 460.184 206.415 461.108 205.532C461.576 205.085 462.061 204.72 462.621 204.387C462.913 204.224 463.279 204.067 463.697 204.045C464.111 204.021 464.48 204.128 464.781 204.253C465.391 204.527 465.785 204.82 466.235 205.079C466.669 205.347 467.095 205.607 467.507 205.86C468.312 206.364 469.069 206.839 469.78 207.281C472.547 209.039 474.209 210.208 474.113 210.373C474.017 210.54 472.179 209.669 469.285 208.131C468.549 207.732 467.763 207.307 466.928 206.855C466.504 206.621 466.068 206.381 465.62 206.135C465.175 205.896 464.691 205.592 464.301 205.44C463.875 205.292 463.689 205.303 463.28 205.537C462.873 205.795 462.431 206.133 462.053 206.509C461.287 207.268 460.649 208.221 460.239 209.293C459.384 211.44 459.692 213.776 460.633 215.541C461.565 217.335 463.068 218.5 464.488 219.087C465.921 219.681 467.22 219.771 468.103 219.765C468.991 219.743 469.496 219.656 469.525 219.757" fill="#17282F"/>
<path d="M466.581 177.669C466.473 177.679 466.595 175.964 465.852 173.033C465.117 170.16 463.201 165.935 458.88 162.667C456.74 161.071 454.044 159.715 450.936 159.171C447.851 158.648 444.369 158.748 441.057 160.012C439.391 160.593 437.783 161.469 436.305 162.576C434.812 163.661 433.456 165.008 432.339 166.569C430.028 169.643 428.727 173.595 428.688 177.665C428.725 181.74 430.027 185.692 432.337 188.768C433.455 190.328 434.811 191.676 436.305 192.761C437.781 193.868 439.389 194.744 441.057 195.325C444.369 196.589 447.851 196.691 450.937 196.167C454.045 195.623 456.741 194.268 458.881 192.671C463.203 189.401 465.117 185.176 465.852 182.304C466.595 179.373 466.473 177.66 466.581 177.669C466.593 177.669 466.599 177.773 466.6 177.979C466.597 178.227 466.593 178.525 466.589 178.892C466.591 179.295 466.569 179.791 466.472 180.372C466.396 180.955 466.323 181.632 466.115 182.369C465.801 183.867 465.128 185.643 464.045 187.531C462.953 189.411 461.363 191.381 459.18 193.061C457.003 194.725 454.241 196.147 451.043 196.733C447.868 197.299 444.273 197.216 440.839 195.927C439.112 195.333 437.444 194.435 435.911 193.293C434.36 192.175 432.952 190.784 431.789 189.171C429.388 185.989 428.029 181.888 427.995 177.665C428.031 173.445 429.389 169.345 431.791 166.165C432.953 164.552 434.36 163.161 435.911 162.044C437.444 160.904 439.112 160.004 440.839 159.411C444.272 158.123 447.867 158.039 451.043 158.605C454.241 159.191 457.001 160.612 459.179 162.276C461.361 163.955 462.953 165.925 464.044 167.805C465.128 169.693 465.801 171.469 466.113 172.967C466.321 173.705 466.396 174.383 466.472 174.965C466.569 175.547 466.591 176.044 466.589 176.445C466.593 176.812 466.597 177.111 466.6 177.359C466.599 177.564 466.593 177.669 466.581 177.669" fill="#17282F"/>
<path d="M512.241 175.875C512.136 175.884 512.253 174.213 511.528 171.359C510.812 168.56 508.944 164.444 504.735 161.261C502.649 159.705 500.024 158.385 496.996 157.857C493.989 157.348 490.599 157.447 487.375 158.677C485.751 159.243 484.184 160.097 482.747 161.175C481.291 162.232 479.971 163.544 478.881 165.064C476.632 168.057 475.365 171.907 475.327 175.872C475.364 179.839 476.631 183.688 478.88 186.684C479.969 188.204 481.291 189.517 482.745 190.573C484.184 191.652 485.751 192.507 487.375 193.072C490.6 194.303 493.991 194.401 496.997 193.892C500.025 193.363 502.651 192.043 504.736 190.488C508.944 187.304 510.812 183.188 511.528 180.389C512.253 177.536 512.136 175.865 512.241 175.875C512.265 175.875 512.268 176.284 512.252 177.067C512.253 177.459 512.233 177.943 512.139 178.509C512.064 179.076 511.992 179.737 511.791 180.456C511.144 183.313 509.316 187.557 505.033 190.879C502.912 192.5 500.221 193.887 497.103 194.459C494.007 195.011 490.503 194.929 487.155 193.673C485.472 193.095 483.845 192.217 482.351 191.107C480.839 190.016 479.467 188.66 478.332 187.087C475.992 183.987 474.668 179.988 474.633 175.872C474.669 171.757 475.993 167.76 478.333 164.66C479.468 163.088 480.84 161.732 482.352 160.643C483.845 159.531 485.472 158.655 487.155 158.076C490.503 156.82 494.007 156.74 497.101 157.291C500.22 157.861 502.911 159.248 505.032 160.871C509.315 164.191 511.144 168.435 511.791 171.293C511.992 172.012 512.064 172.672 512.139 173.24C512.233 173.807 512.253 174.291 512.252 174.683C512.268 175.465 512.265 175.875 512.241 175.875" fill="#17282F"/>
<path d="M474.981 171.657C474.905 171.735 474.465 171.363 473.653 170.979C472.851 170.595 471.648 170.219 470.296 170.243C468.943 170.261 467.755 170.681 466.967 171.096C466.172 171.511 465.748 171.901 465.671 171.827C465.605 171.775 465.916 171.243 466.711 170.677C467.493 170.117 468.784 169.569 470.284 169.548C471.784 169.521 473.091 170.021 473.893 170.551C474.709 171.084 475.041 171.603 474.981 171.657" fill="#17282F"/>
<path d="M429.494 174.952C429.609 175.105 425.868 178.093 421.14 181.624C416.409 185.155 412.482 187.892 412.368 187.739C412.253 187.585 415.993 184.599 420.724 181.067C425.453 177.537 429.38 174.799 429.494 174.952" fill="#17282F"/>
<path d="M436.348 311.261C435.26 311.261 434.165 310.58 433.257 309.892C418.823 298.988 411.94 280.041 413.688 262.035C413.784 262.592 413.896 263.239 414.024 263.975C414.46 266.503 415.113 270.172 416.361 274.604C417.617 279.024 419.467 284.24 422.535 289.529C424.069 292.165 425.917 294.809 428.144 297.285C430.38 299.751 433.015 302.027 436.001 303.92C436.257 304.085 436.513 304.249 436.749 304.401L437.113 304.636L437.256 304.216C439.437 297.813 441.513 291.719 443.404 286.165C443.473 286.263 443.544 286.361 443.612 286.459C444.639 294.401 443.215 302.067 439.192 309.032C438.696 309.889 438.099 310.784 437.168 311.12C436.897 311.219 436.623 311.261 436.348 311.261" fill="#0D98E7"/>
<path d="M437.113 304.636L436.749 304.401C436.513 304.249 436.257 304.085 436.001 303.92C433.015 302.027 430.38 299.751 428.144 297.285C425.917 294.809 424.069 292.165 422.535 289.529C419.467 284.24 417.617 279.024 416.361 274.604C415.113 270.172 414.46 266.503 414.024 263.975C413.896 263.239 413.784 262.592 413.688 262.035C413.697 261.935 413.708 261.832 413.717 261.732C416.4 280.1 424.281 296.425 436.928 304.104C439.248 297.773 441.22 291.833 443.519 285.781C443.552 286.008 443.584 286.233 443.612 286.459C443.544 286.361 443.473 286.263 443.404 286.165C441.513 291.719 439.437 297.813 437.256 304.216L437.113 304.636" fill="#0F191D"/>
<path d="M475.264 316.997L473.499 298.987L463.825 302.52C467.673 299.413 471.419 296.392 474.996 293.503C475.004 298.401 475.011 303.124 475.017 307.631L475.019 308.628L475.56 307.795C480.195 300.663 484.197 293.979 487.376 287.845C488.947 284.773 490.336 281.843 491.253 278.977C492.132 276.115 492.723 273.435 493.161 270.995C493.833 267.236 494.019 264.037 493.901 261.563C493.88 260.595 493.82 260.076 493.82 260.076C493.82 260.076 496.267 276.94 491.511 286.496C486.756 296.053 475.264 316.997 475.264 316.997Z" fill="#0D98E7"/>
<path d="M475.019 308.628L475.017 307.631C475.011 303.124 475.004 298.402 474.996 293.503C471.419 296.392 467.673 299.414 463.825 302.52L462.851 302.876L475.315 292.836V307.632L484.005 293.504C493.356 278.288 493.993 265.743 493.901 261.563C494.019 264.038 493.833 267.236 493.161 270.995C492.723 273.435 492.132 276.115 491.253 278.978C490.336 281.843 488.947 284.774 487.376 287.846C484.197 293.979 480.195 300.663 475.56 307.795L475.019 308.628" fill="#0F191D"/>
<path d="M301.645 412.815L301.465 412.789C300.926 407.27 303.854 401.779 308.172 398.296C312.489 394.812 318.02 393.125 323.53 392.484C325.029 392.309 326.548 392.209 328.065 392.209C331.828 392.209 335.576 392.822 338.961 394.42C343.71 396.663 347.374 399.735 348.012 404.948C346.285 403.105 344.366 401.452 342.304 400.035C342.316 400.015 342.132 399.824 341.764 399.476C341.389 399.132 340.794 398.665 339.974 398.148C338.332 397.123 335.744 395.959 332.373 395.159C330.69 394.757 328.815 394.44 326.781 394.287C326.085 394.235 325.365 394.201 324.628 394.201C323.224 394.201 321.758 394.321 320.274 394.651C315.737 395.624 311.246 398.463 307.746 402.44C304.91 405.605 302.952 409.244 301.645 412.815V412.815ZM341.972 399.811C340.328 398.709 338.594 397.756 336.793 396.974C338.012 397.439 339.032 397.925 339.837 398.38C340.905 398.989 341.6 399.523 341.972 399.811Z" fill="#0D98E7"/>
<path d="M302 412.865L301.645 412.815C302.952 409.244 304.91 405.605 307.746 402.44C311.246 398.463 315.737 395.624 320.274 394.651C321.758 394.322 323.224 394.202 324.628 394.202C325.365 394.202 326.085 394.235 326.781 394.287C328.814 394.44 330.69 394.757 332.373 395.159C335.744 395.959 338.332 397.123 339.974 398.148C340.794 398.666 341.389 399.132 341.764 399.476C342.132 399.824 342.316 400.015 342.304 400.035C342.193 399.96 342.082 399.884 341.972 399.811C341.6 399.523 340.905 398.99 339.837 398.38C339.032 397.926 338.012 397.439 336.793 396.974C333.124 395.378 329.177 394.488 325.148 394.488C324.314 394.488 323.476 394.527 322.637 394.604C313.106 395.491 305.714 402.81 302 412.865" fill="#0F191D"/>
<path d="M612.927 419.177C611.357 415.739 609.736 412.246 607.584 409.164C607.585 409.164 607.587 409.163 607.588 409.162C607.619 409.138 607.267 408.604 606.523 407.717C606.432 407.61 606.335 407.496 606.232 407.379C605.621 406.638 604.971 405.928 604.269 405.262C600.535 401.702 595.569 399.567 590.439 398.939C589.647 398.818 588.833 398.731 588.004 398.684C587.539 398.659 587.076 398.647 586.62 398.647C581.808 398.647 577.509 399.998 574.343 401.616C573.16 402.147 572.007 402.743 570.889 403.396L568.857 405.047C574.435 399.992 581.955 397.183 589.471 397.183C591.161 397.183 592.852 397.326 594.52 397.616C599.693 398.519 604.707 400.852 608.275 404.704C611.843 408.555 613.816 414.004 612.927 419.177" fill="#0D98E7"/>
<path d="M607.584 409.164C607.155 408.552 606.707 407.955 606.232 407.379C606.335 407.496 606.432 407.609 606.523 407.717C607.267 408.604 607.619 409.138 607.588 409.162C607.587 409.163 607.585 409.164 607.584 409.164ZM574.343 401.616C577.509 399.997 581.808 398.647 586.62 398.647C587.076 398.647 587.539 398.659 588.004 398.684C588.833 398.731 589.647 398.817 590.439 398.939C589.621 398.839 588.801 398.776 587.98 398.753C587.719 398.745 587.46 398.743 587.199 398.743C582.777 398.743 578.388 399.799 574.343 401.616" fill="#0F191D"/>
<path d="M539.624 321.049C539.58 321.031 539.752 320.513 540.1 319.595C540.512 318.541 541.019 317.247 541.615 315.719C542.905 312.452 544.675 307.936 546.543 302.916C548.411 297.892 550.023 293.319 551.181 290.001C551.728 288.456 552.192 287.145 552.568 286.079C552.905 285.156 553.112 284.652 553.157 284.665C553.204 284.68 553.084 285.212 552.825 286.16C552.571 287.111 552.168 288.476 551.648 290.156C550.607 293.515 549.065 298.125 547.195 303.159C545.321 308.187 543.477 312.684 542.069 315.907C541.365 317.519 540.777 318.815 540.349 319.701C539.924 320.588 539.667 321.069 539.624 321.049Z" fill="#17282F"/>
<path d="M371.529 322.359C371.341 322.396 369.892 316.051 368.293 308.188C366.693 300.321 365.549 293.916 365.737 293.877C365.925 293.839 367.374 300.183 368.973 308.048C370.573 315.913 371.717 322.321 371.529 322.359Z" fill="#17282F"/>
<path d="M369.013 401.672C369.435 401.884 364.129 360.123 364.129 360.123C364.129 360.123 367.479 328.431 369.361 326.965L369.409 315.783C369.409 315.783 374.592 312.644 375.984 317.713C375.984 317.713 380.58 313.721 381.383 323.221C382.185 332.721 382.355 342.431 382.355 342.431L392.584 368.009L394.269 368.86C394.269 368.86 396.467 348.823 397.745 345.873C399.024 342.924 399.9 335.753 404.748 336.828C409.597 337.905 410.003 341.916 409.129 348.455C408.257 354.993 407.173 361.741 407.576 365.964C407.981 370.187 409.899 379.48 409.309 386.864C408.72 394.247 404.677 402.039 400.432 407.507C396.188 412.975 388.081 424.286 383.673 427.693C382.135 428.883 369.013 401.672 369.013 401.672" fill="#F8A58D"/>
<path d="M374.179 367.688C374.129 367.684 374.143 367.048 374.207 365.9C374.293 364.617 374.405 362.992 374.54 361.049C374.852 356.955 375.331 351.304 375.903 345.067C376.196 341.956 376.477 338.993 376.735 336.275C376.868 334.932 376.952 333.66 376.781 332.505C376.62 331.351 376.167 330.347 375.505 329.624C374.155 328.16 372.419 327.789 371.329 327.791C370.201 327.783 369.612 328.089 369.589 328.013C369.58 327.992 369.721 327.917 370.004 327.795C370.292 327.692 370.732 327.552 371.32 327.52C372.463 327.437 374.333 327.733 375.865 329.289C376.62 330.061 377.155 331.181 377.349 332.416C377.559 333.653 377.487 334.98 377.372 336.332C377.131 339.052 376.869 342.017 376.593 345.131C376.021 351.368 375.465 357.011 375.029 361.095C374.807 363.028 374.621 364.648 374.475 365.925C374.329 367.064 374.225 367.692 374.179 367.688" fill="#F68260"/>
<path d="M379.677 350.608C379.777 350.692 378.637 351.695 377.865 353.905C377.041 356.083 376.744 359.353 376.165 362.92C375.615 366.491 375.077 369.716 374.653 372.047C374.231 374.376 373.923 375.809 373.827 375.795C373.733 375.779 373.871 374.32 374.169 371.971C374.468 369.621 374.928 366.383 375.479 362.813C376.057 359.265 376.429 355.967 377.408 353.727C377.871 352.608 378.436 351.791 378.887 351.291C379.333 350.784 379.653 350.583 379.677 350.608" fill="#F68260"/>
<path d="M375.917 317.163C375.964 317.155 376.089 317.623 376.273 318.477C376.46 319.329 376.692 320.573 376.947 322.113C377.456 325.195 378.013 329.479 378.367 334.232C378.716 338.991 378.793 343.309 378.741 346.432C378.717 347.993 378.671 349.256 378.611 350.127C378.555 350.999 378.5 351.48 378.452 351.479C378.349 351.476 378.327 349.548 378.251 346.435C378.177 343.32 378.023 339.021 377.675 334.284C377.323 329.548 376.844 325.273 376.46 322.183C376.077 319.093 375.816 317.18 375.917 317.163" fill="#F68260"/>
<path d="M405.427 356.318C405.527 356.475 403.931 357.216 401.981 356.61C400.023 356.026 399.113 354.519 399.284 354.444C399.439 354.312 400.463 355.443 402.183 355.946C403.891 356.49 405.372 356.12 405.427 356.318" fill="#F68260"/>
<path d="M369.589 396.48L342.564 407.836H326.462C326.462 407.836 310.537 412.807 308.086 427.735C305.636 442.664 305.286 450.348 312.286 452.195C319.288 454.041 339.064 454.245 348.864 450.993C358.665 447.74 384.337 427.024 384.337 427.024L386.812 412.037L369.589 396.48" fill="#F8A58D"/>
<path d="M375.917 412.977C375.883 413.009 375.612 412.759 375.149 412.272C374.669 411.802 374.077 411.027 373.393 410.04C372.057 408.045 370.595 405.019 369.62 401.492C368.609 397.972 368.179 394.681 367.955 392.309C367.749 389.929 367.761 388.452 367.849 388.447C367.952 388.44 368.115 389.904 368.443 392.252C368.789 394.596 369.292 397.837 370.288 401.301C371.248 404.775 372.605 407.756 373.809 409.777C375.024 411.796 376.013 412.891 375.917 412.977" fill="#F68260"/>
<path d="M387.683 417.716C387.539 417.663 388.755 415.608 389.223 411.922C389.447 410.093 389.427 407.867 388.904 405.489C388.387 403.105 387.248 400.652 385.593 398.361C383.951 396.06 382.105 394.056 380.549 392.119C378.977 390.191 377.719 388.304 376.896 386.596C376.067 384.887 375.684 383.38 375.541 382.333C375.405 381.281 375.46 380.696 375.496 380.696C375.631 380.665 375.585 383.08 377.335 386.375C378.193 388.012 379.461 389.828 381.044 391.713C382.612 393.611 384.479 395.607 386.159 397.959C387.852 400.297 389.033 402.881 389.529 405.352C390.036 407.822 390.003 410.119 389.709 411.989C389.416 413.865 388.9 415.321 388.471 416.281C388.264 416.769 388.065 417.127 387.925 417.367C387.788 417.607 387.705 417.727 387.683 417.716" fill="#F68260"/>
<path d="M346.021 352.644C345.852 352.732 342.902 347.368 339.437 340.663C335.969 333.956 333.297 328.449 333.468 328.361C333.638 328.272 336.586 333.637 340.053 340.344C343.52 347.049 346.192 352.556 346.021 352.644Z" fill="white"/>
<path d="M389.728 303.992C389.552 303.913 391.375 299.439 393.797 294.001C396.221 288.56 398.327 284.215 398.503 284.293C398.677 284.372 396.856 288.843 394.432 294.284C392.009 299.723 389.903 304.069 389.728 303.992" fill="white"/>
<path d="M432.525 335.567C432.377 335.689 429.636 332.62 426.401 328.715C423.165 324.805 420.662 321.539 420.81 321.417C420.958 321.295 423.7 324.363 426.936 328.271C430.17 332.177 432.673 335.445 432.525 335.567" fill="white"/>
<path d="M422.68 378.996C422.524 378.883 424.591 375.771 427.295 372.042C429.999 368.312 432.317 365.381 432.472 365.493C432.627 365.605 430.561 368.719 427.856 372.448C425.153 376.177 422.835 379.108 422.68 378.996Z" fill="white"/>
<path d="M409.425 440.339C409.342 440.38 408.736 439.362 407.86 437.66C406.985 435.959 405.849 433.571 404.708 430.884C403.566 428.196 402.634 425.72 402.017 423.91C401.4 422.1 401.088 420.956 401.176 420.926C401.268 420.891 401.744 421.975 402.477 423.736C403.313 425.741 404.28 428.056 405.346 430.612C406.446 433.155 407.441 435.456 408.304 437.45C409.064 439.202 409.513 440.295 409.425 440.339" fill="white"/>
<path d="M447.081 414.262C447.044 414.45 443.42 413.907 438.987 413.05C434.551 412.19 430.987 411.341 431.023 411.153C431.06 410.965 434.683 411.508 439.119 412.367C443.552 413.224 447.117 414.074 447.081 414.262" fill="white"/>
<path d="M476.284 356.943C476.144 356.813 479.599 352.857 484.001 348.108C488.407 343.359 492.091 339.615 492.231 339.745C492.372 339.876 488.916 343.831 484.512 348.581C480.108 353.329 476.425 357.073 476.284 356.943Z" fill="white"/>
<path d="M505.664 433.387C505.516 433.508 501.205 428.519 496.036 422.243C490.864 415.965 486.793 410.779 486.94 410.657C487.089 410.536 491.4 415.524 496.571 421.802C501.741 428.077 505.813 433.265 505.664 433.387Z" fill="white"/>
<path d="M323.285 400.806C323.382 400.996 319.444 402.993 315.152 406.288C310.838 409.559 307.87 412.829 307.713 412.684C307.646 412.626 308.305 411.731 309.526 410.42C310.746 409.107 312.553 407.4 314.73 405.736C316.909 404.076 319.033 402.786 320.621 401.956C322.209 401.124 323.245 400.726 323.285 400.806Z" fill="white"/>
<path d="M334.271 371.343C334.431 371.448 333.028 373.837 331.139 376.679C329.249 379.52 327.588 381.737 327.429 381.631C327.269 381.525 328.671 379.136 330.561 376.295C332.449 373.453 334.111 371.236 334.271 371.343Z" fill="white"/>
<path d="M359.021 400.275C358.869 400.365 357.48 398.032 356.755 394.799C356.011 391.567 356.255 388.864 356.431 388.88C356.639 388.88 356.708 391.511 357.431 394.644C358.132 397.781 359.208 400.185 359.021 400.275Z" fill="white"/>
<path d="M362.691 308.38C362.717 308.57 360.417 309.052 357.555 309.46C354.689 309.868 352.347 310.044 352.32 309.854C352.292 309.663 354.592 309.18 357.457 308.772C360.32 308.366 362.664 308.19 362.691 308.38Z" fill="white"/>
<path d="M381.281 275.412C381.375 275.58 379.361 276.873 376.785 278.301C374.208 279.728 372.044 280.749 371.952 280.583C371.859 280.415 373.872 279.121 376.448 277.693C379.024 276.267 381.188 275.244 381.281 275.412Z" fill="white"/>
<path d="M433.559 289.339C433.407 289.455 431.104 286.687 428.416 283.159C425.728 279.628 423.672 276.672 423.825 276.556C423.977 276.44 426.28 279.208 428.968 282.737C431.656 286.267 433.712 289.221 433.559 289.339Z" fill="white"/>
<path d="M499.923 322.492C499.793 322.613 497.369 320.117 495.12 316.488C492.856 312.865 491.689 309.588 491.856 309.527C492.044 309.444 493.48 312.553 495.709 316.12C497.924 319.696 500.079 322.357 499.923 322.492Z" fill="white"/>
<path d="M525.252 330.84C525.426 330.92 524.196 334.008 522.502 337.737C520.81 341.468 519.296 344.428 519.121 344.348C518.946 344.269 520.177 341.181 521.87 337.451C523.562 333.721 525.077 330.763 525.252 330.84Z" fill="white"/>
<path d="M528.792 296.268C528.645 296.389 525.629 293.008 522.056 288.715C518.483 284.421 515.707 280.841 515.853 280.717C516 280.596 519.016 283.977 522.591 288.271C526.161 292.564 528.939 296.145 528.792 296.268" fill="white"/>
<path d="M490.105 268.184C489.913 268.191 489.644 265.299 489.503 261.721C489.363 258.145 489.403 255.241 489.596 255.233C489.787 255.225 490.056 258.117 490.197 261.695C490.337 265.271 490.297 268.176 490.105 268.184" fill="white"/>
<path d="M521.648 266.433C521.672 266.624 517.987 267.273 513.416 267.884C508.841 268.496 505.114 268.837 505.09 268.648C505.064 268.457 508.75 267.808 513.322 267.196C517.894 266.585 521.621 266.243 521.648 266.433Z" fill="white"/>
<path d="M571.327 302.927C571.155 303.009 568.936 298.781 566.375 293.485C563.811 288.185 561.873 283.824 562.045 283.74C562.217 283.657 564.435 287.883 566.999 293.183C569.561 298.48 571.5 302.843 571.327 302.927" fill="white"/>
<path d="M562.963 334.459C562.775 334.421 563.295 331.023 564.124 326.869C564.953 322.715 565.779 319.379 565.967 319.416C566.153 319.453 565.635 322.851 564.805 327.005C563.976 331.16 563.152 334.496 562.963 334.459Z" fill="white"/>
<path d="M586.006 359.319C585.825 359.381 584.054 354.793 582.052 349.073C580.049 343.351 578.573 338.66 578.754 338.599C578.934 338.535 580.705 343.12 582.708 348.843C584.709 354.564 586.188 359.255 586.006 359.319Z" fill="white"/>
<path d="M582.797 373.857C582.764 374.028 579.567 373.361 576.063 371.449C572.545 369.557 570.241 367.244 570.367 367.123C570.501 366.963 572.959 368.993 576.393 370.839C579.815 372.708 582.857 373.656 582.797 373.857" fill="white"/>
<path d="M612.317 407.012C612.141 407.091 611.071 405.067 609.925 402.493C608.78 399.919 607.993 397.768 608.168 397.691C608.344 397.612 609.415 399.636 610.56 402.211C611.705 404.784 612.491 406.935 612.317 407.012" fill="white"/>
<path d="M437.971 453.25C437.781 453.272 437.317 450.628 436.935 447.345C436.553 444.062 436.399 441.383 436.589 441.362C436.779 441.339 437.243 443.983 437.625 447.265C438.007 450.548 438.161 453.227 437.971 453.25" fill="white"/>
<path d="M528.541 450.96C528.355 450.92 528.745 448.335 529.415 445.187C530.085 442.039 530.779 439.519 530.967 439.557C531.153 439.599 530.764 442.183 530.095 445.331C529.425 448.48 528.729 451 528.541 450.96Z" fill="white"/>
<path d="M545.909 186.573L557.62 165.933C552.438 157.523 549.445 147.623 549.445 137.021C549.445 106.531 574.161 81.8134 604.653 81.8134C635.142 81.8134 659.86 106.531 659.86 137.021C659.86 167.511 635.142 192.228 604.653 192.228C591.921 192.228 580.205 187.907 570.867 180.667L570.884 180.691L545.909 186.573" fill="#FAFAF9"/>
<path d="M545.909 186.573C547.096 186.301 555.001 184.495 570.924 180.856L571.18 180.799L571.02 180.588L571 180.564L570.763 180.801C573.912 183.241 577.684 185.645 582.119 187.648C586.559 189.617 591.645 191.225 597.263 191.972C600.065 192.331 602.995 192.561 606.005 192.415C607.509 192.329 609.041 192.293 610.585 192.164C612.12 191.932 613.675 191.696 615.252 191.459C621.504 190.224 627.898 187.851 633.861 184.151C639.821 180.463 645.34 175.456 649.764 169.304C654.18 163.163 657.529 155.881 659.097 147.968C660.65 140.067 660.521 131.597 658.445 123.4C656.356 115.232 652.452 107.252 646.608 100.688L644.352 98.2053C643.611 97.372 642.727 96.6827 641.924 95.9173C641.083 95.1933 640.322 94.3733 639.42 93.7333L636.768 91.752C635.91 91.0587 634.965 90.4987 634.025 89.936C633.089 89.368 632.154 88.8013 631.222 88.236C630.242 87.76 629.264 87.2854 628.289 86.8107C627.306 86.3574 626.36 85.8213 625.328 85.4947C617.306 82.3107 608.75 81.0973 600.573 81.6907C592.392 82.28 584.565 84.6267 577.85 88.4067C571.114 92.1573 565.434 97.1627 561.05 102.755C556.653 108.349 553.554 114.519 551.637 120.664C549.73 126.837 549.216 132.96 549.237 138.627C549.401 144.308 550.435 149.541 551.941 154.135C553.452 158.735 555.433 162.691 557.481 166.019L557.478 165.852C550.089 179.088 546.477 185.556 545.909 186.573C546.489 185.565 550.191 179.145 557.763 166.013L557.811 165.931L557.76 165.847C555.748 162.524 553.801 158.583 552.325 154.009C550.853 149.443 549.851 144.247 549.708 138.613C549.711 132.993 550.241 126.929 552.147 120.821C554.064 114.741 557.146 108.641 561.509 103.116C565.86 97.592 571.486 92.6507 578.153 88.9547C584.797 85.2267 592.536 82.9187 600.62 82.3454C608.704 81.768 617.153 82.972 625.077 86.1213C626.096 86.4427 627.029 86.9747 628.001 87.424C628.964 87.892 629.93 88.36 630.897 88.8307C631.818 89.3907 632.74 89.9507 633.664 90.5134C634.594 91.068 635.528 91.62 636.375 92.3067L638.992 94.264C639.885 94.896 640.635 95.7067 641.465 96.4227C642.259 97.1787 643.133 97.8574 643.865 98.6827L646.093 101.133C651.867 107.617 655.721 115.499 657.791 123.565C659.844 131.66 659.979 140.029 658.452 147.84C656.912 155.66 653.609 162.86 649.253 168.937C644.888 175.027 639.44 179.991 633.55 183.651C627.658 187.325 621.337 189.689 615.15 190.931C613.589 191.171 612.048 191.408 610.53 191.643C609 191.775 607.484 191.815 605.993 191.905C603.011 192.061 600.105 191.841 597.324 191.497C591.756 190.777 586.704 189.204 582.286 187.271C577.876 185.304 574.116 182.937 570.97 180.532L569.941 179.745L570.73 180.771L570.75 180.795L570.845 180.525C554.973 184.375 547.091 186.287 545.909 186.573" fill="#17282F"/>
<path d="M619.559 134.716C619.559 137.696 621.973 140.111 624.953 140.111C627.933 140.111 630.349 137.696 630.349 134.716C630.349 131.738 627.933 129.321 624.953 129.321C621.973 129.321 619.559 131.738 619.559 134.716Z" fill="#17282F"/>
<path d="M597.968 134.716C597.968 137.696 600.382 140.111 603.362 140.111C606.342 140.111 608.758 137.696 608.758 134.716C608.758 131.738 606.342 129.321 603.362 129.321C600.382 129.321 597.968 131.738 597.968 134.716Z" fill="#17282F"/>
<path d="M576.43 132.019C574.941 134.6 575.825 137.899 578.406 139.389C580.986 140.879 584.286 139.995 585.776 137.413C587.265 134.833 586.382 131.533 583.802 130.044C581.221 128.555 577.922 129.439 576.43 132.019Z" fill="#17282F"/>
</g>
<defs>
<clipPath id="clip0">
<rect width="940.547" height="534.8" fill="white"/>
</clipPath>
</defs>
</svg>
