<?xml version="1.0" encoding="utf-8"?>
<!-- Generator: Adobe Illustrator 17.0.0, SVG Export Plug-In . SVG Version: 6.00 Build 0)  -->
<!DOCTYPE svg PUBLIC "-//W3C//DTD SVG 1.1//EN" "http://www.w3.org/Graphics/SVG/1.1/DTD/svg11.dtd">
<svg version="1.1" id="Layer_1" xmlns="http://www.w3.org/2000/svg" xmlns:xlink="http://www.w3.org/1999/xlink" x="0px" y="0px"
	 width="1080px" height="301.961px" viewBox="0 0 1080 301.961" enable-background="new 0 0 1080 301.961" xml:space="preserve">
<g>
	<path fill="#001C4F" d="M931.124,265.753l-60.345-90.917c-1.579-2.377-4.225-3.823-7.078-3.867l-80.649-1.25
		c-2.973-0.048-5.817,1.469-7.433,4.001l-58.752,92.166c-1.698,2.665-1.81,5.927-0.29,8.698c1.52,2.771,4.429,4.376,7.589,4.376
		h199.747c3.189,0,6.12-1.636,7.627-4.447C933.048,271.704,932.888,268.41,931.124,265.753z"/>
	<g>
		<g>
			<circle fill="#FFFFFF" cx="823.834" cy="125.169" r="84.328"/>
			<path fill="#001C4F" d="M823.834,215.926c-50.044,0-90.757-40.713-90.757-90.757s40.713-90.757,90.757-90.757
				c50.043,0,90.756,40.713,90.756,90.757S873.878,215.926,823.834,215.926z M823.834,47.269c-42.954,0-77.9,34.946-77.9,77.9
				s34.946,77.9,77.9,77.9c42.953,0,77.899-34.946,77.899-77.9S866.788,47.269,823.834,47.269z"/>
		</g>
		<circle fill="#29ABE2" cx="823.834" cy="125.169" r="53.26"/>
		<circle fill="#FFFFFF" cx="845.16" cy="104.977" r="18.246"/>
	</g>
	<g>
		<text transform="matrix(1 0 0 1 762.7371 264.6729)" fill="#FFFFFF" font-family="'JKAbode-Demo'" font-size="73.4554">360</text>
	</g>
	<path fill="#001C4F" d="M1041.46,129.387c0.281-6.364-1.739-12.429-4.211-18.201c-2.902-6.769-6.744-12.685-11.801-17.746
		c-5.061-5.057-10.944-9.075-17.787-12.054c-6.847-2.975-14.104-4.464-21.839-4.464c-7.74,0-15.015,1.489-21.858,4.464
		c-6.845,2.979-12.791,6.996-17.847,12.054c-5.061,5.061-8.777,10.976-11.679,17.746c-2.242,5.232-4.123,10.706-4.248,16.424
		c-0.022,0.988,0.381,61.033,0.381,61.033s-0.492,9.435,11.215,9.435c11.194,0,11.215-9.435,11.215-9.435v-55.918
		c0-4.464,0.988-8.705,2.7-12.722c1.709-4.018,4.12-7.478,7.098-10.38c2.975-2.902,6.468-5.207,10.413-6.92
		c3.94-1.709,8.164-2.567,12.628-2.567c4.464,0,8.674,0.858,12.62,2.567c3.94,1.713,7.405,4.018,10.383,6.92
		c2.975,2.902,5.327,6.362,7.04,10.38c1.709,4.017,2.575,8.258,2.575,12.722l0.161,55.918c0.853,5.327,5.286,9.435,11.159,9.435
		c5.873,0,10.306-4.109,11.159-9.435C1040.936,188.643,1041.411,130.491,1041.46,129.387z"/>
	<path fill="#001C4F" d="M618.966,132.726c0-7.735-1.499-14.99-4.401-21.763c-2.901-6.77-6.909-12.685-11.966-17.746
		c-5.061-5.057-10.988-9.04-17.758-11.942c-6.773-2.902-14.034-4.353-21.77-4.353c-7.739,0-14.996,1.451-21.766,4.353
		c-6.773,2.902-12.69,6.884-17.747,11.942c-5.06,5.061-9.041,10.976-11.943,17.746c-2.901,6.773-4.353,14.028-4.353,21.763
		c0,7.589,1.451,14.772,4.352,21.54c2.901,6.774,6.882,12.688,11.942,17.746c5.057,5.061,10.973,9.078,17.746,12.054
		c6.77,2.978,14.024,4.464,21.763,4.464c2.233,0,6.697-0.52,13.393-1.563l-5.357-22.544c-1.339,0.3-2.644,0.523-3.906,0.67
		c-1.267,0.15-2.644,0.224-4.13,0.224c-4.463,0-8.67-0.854-12.612-2.567c-3.944-1.709-7.403-4.053-10.379-7.031
		c-2.979-2.975-5.323-6.435-7.031-10.38c-1.713-3.94-2.567-8.147-2.567-12.612c0-4.61,0.854-8.927,2.567-12.946
		c1.709-4.018,4.052-7.513,7.031-10.491c2.975-2.975,6.435-5.319,10.379-7.031c3.942-1.709,8.148-2.567,12.612-2.567
		c4.464,0,8.667,0.858,12.613,2.567c3.94,1.713,7.401,4.057,10.379,7.031c2.975,2.979,4.991,6.473,6.704,10.491
		c1.709,4.018,2.239,8.336,2.239,12.946v53.921c0,6.251,5.242,11.376,11.983,11.376c6.047,0,10.876-4.052,11.808-9.378
		L618.966,132.726z"/>
	<path fill="#001C4F" d="M474.001,162.971c-3.721,1.563-7.888,2.345-12.5,2.345c-4.464,0-8.67-0.854-12.612-2.567
		c-3.944-1.709-7.405-4.053-10.379-7.031c-2.979-2.975-5.323-6.435-7.031-10.38c-1.713-3.94-2.567-8.147-2.567-12.612
		s0.854-8.705,2.567-12.722c1.709-4.018,4.052-7.513,7.031-10.492c2.974-2.975,6.435-5.319,10.379-7.031
		c3.942-1.709,8.147-2.567,12.612-2.567c4.611,0,8.779,0.781,12.5,2.343c3.718,1.562,10.248,6.166,10.248,6.166
		c5.031,3.083,11.579,1.888,15.302-3.373c2.763-3.906,2.89-8.534,0.903-12.183c0,0-0.825-1.426-1.183-1.754
		c-0.638-0.775-1.381-1.485-2.242-2.095l-2.227-1.576c-0.344-0.252-0.695-0.496-1.046-0.741l-1.075-0.76
		c-0.388-0.275-0.79-0.513-1.197-0.733c-2.671-1.662-5.515-3.13-8.554-4.38c-6.696-2.752-13.839-4.13-21.429-4.13
		s-14.77,1.451-21.54,4.353c-6.773,2.902-12.688,6.885-17.746,11.943c-5.06,5.061-9.078,11.014-12.054,17.857
		c-2.978,6.847-4.463,14.14-4.463,21.875c0,7.74,1.485,14.994,4.463,21.764c2.975,6.773,6.994,12.688,12.054,17.746
		c5.057,5.06,10.973,9.039,17.746,11.942c6.77,2.901,13.951,4.353,21.54,4.353s14.733-1.375,21.429-4.129
		c6.697-2.753,12.5-6.509,17.411-11.273l0.446-0.446l-16.742-16.071C481.068,159.288,477.719,161.409,474.001,162.971z"/>
	<path fill="#001C4F" d="M382.5,64.801c-6.547,0-11.5,5.068-11.5,11.319v56.606c0,4.464-1.031,8.671-2.74,12.612
		c-1.713,3.946-4.103,7.405-7.006,10.38c-2.901,2.978-6.37,5.323-10.311,7.031c-3.944,1.713-8.246,2.567-12.856,2.567
		c-4.464,0-8.682-0.854-12.622-2.567c-3.945-1.709-7.372-4.053-10.274-7.031c-2.902-2.975-5.175-6.435-6.811-10.38
		c-1.639-3.94-2.457-8.216-2.457-12.68l0.105-56.537c0-6.251-5.597-11.319-12.014-11.319S282,69.868,282,76.12v56.606
		c0,7.589,1.582,14.772,4.484,21.54c2.902,6.774,7.058,12.651,12.119,17.634c5.057,4.988,11.061,9.183,17.834,12.157
		c6.77,2.979,14.04,4.904,21.629,4.904h0.446c7.589,0,14.768-1.924,21.54-4.904c6.77-2.974,12.684-7.061,17.746-12.05
		c5.057-4.983,9.105-10.914,12.008-17.688c2.901-6.769,4.195-14.005,4.195-21.594V76.12C394,69.868,389.047,64.801,382.5,64.801z"/>
	<path fill="#001C4F" d="M126.907,132.961c0,4-0.858,8.776-2.567,12.718c-1.712,3.944-4.056,7.307-7.031,10.209
		c-2.979,2.901-6.438,5.181-10.379,6.89c-3.945,1.713-8.148,2.552-12.612,2.552c-4.464,0-8.671-0.862-12.612-2.574
		c-3.945-1.709-7.405-4.057-10.38-7.035c-2.978-2.975-5.322-6.436-7.031-10.382c-1.713-3.94-2.567-8.148-2.567-12.613
		s0.854-8.667,2.567-12.612c1.709-3.941,4.053-7.401,7.031-10.379c2.975-2.975,6.435-5.319,10.38-7.032
		c3.941-1.709,8.147-2.567,12.612-2.567c4.314,0,8.405,0.782,12.277,2.344c3.867,1.562,7.216,3.609,10.045,6.138l-23.791,24.096
		c-3.103,3.103-2.454,10.314,1.551,14.318c4.629,4.629,11.587,4.535,16.007,0.115l38.153-38.766L133.38,92.763l-0.447-0.442
		c-5.061-4.761-10.864-8.515-17.411-11.271c-6.55-2.752-13.616-4.128-21.205-4.128c-7.74,0-14.994,1.451-21.763,4.353
		c-6.773,2.902-12.689,6.885-17.746,11.942c-5.061,5.061-9.041,10.976-11.942,17.746c-2.902,6.773-4.353,14.028-4.353,21.763
		c0,7.74,1.451,14.994,4.353,21.764c2.901,6.773,6.881,12.688,11.942,17.746c5.057,5.06,10.972,9.039,17.746,11.942
		c6.769,2.901,14.024,4.353,21.763,4.353c7.736,0,14.99-1.451,21.763-4.353c6.769-2.903,12.684-6.882,17.745-11.942
		c5.057-5.057,9.041-10.855,11.943-17.628c2.901-6.77,4.353-13.646,4.353-21.646H126.907z"/>
	<path fill="#001C4F" d="M715,81.446c0,6.251-4.953,11.319-11.5,11.319l0,0c-6.547,0-11.5-5.068-11.5-11.319V76.12
		c0-6.251,4.953-11.319,11.5-11.319l0,0c6.547,0,11.5,5.068,11.5,11.319V81.446z"/>
	<path fill="#001C4F" d="M268,47.557V28.18c0-6.251-4.401-11.319-10.947-11.319c-5.627,0-9.524,3.748-10.625,8.77l-0.415,107.094
		c0,4.464-1.036,8.671-2.745,12.612c-1.713,3.946-4.145,7.405-7.121,10.38c-2.978,2.978-6.517,5.323-10.535,7.031
		c-4.018,1.713-8.281,2.567-12.746,2.567s-8.682-0.854-12.623-2.567c-3.945-1.709-7.41-4.053-10.385-7.031
		c-2.979-2.975-5.325-6.435-7.034-10.38c-1.713-3.94-2.568-8.147-2.568-12.612s0.854-8.705,2.566-12.722
		c1.709-4.018,4.052-7.513,7.031-10.492c2.975-2.975,6.434-5.319,10.379-7.031c3.941-1.709,8.147-2.567,12.612-2.567
		c1.486,0,2.864,0.077,4.129,0.223c1.263,0.15,2.64,0.373,4.13,0.67l5.357-22.545c-2.086-0.296-4.28-0.631-6.585-1.005
		c-2.309-0.369-4.653-0.558-7.031-0.558c-7.143,0-13.878,1.266-20.201,3.795c-6.327,2.532-11.98,6.027-16.964,10.491
		c-4.988,4.464-9.079,9.71-12.277,15.737c-3.202,6.027-5.192,12.465-5.935,19.308c-0.3,1.192-0.466,2.308-0.466,3.349
		c0,1.043,0,2.159,0,3.347c0,7.74,1.471,14.994,4.373,21.764c2.902,6.773,6.891,12.688,11.952,17.746
		c5.057,5.06,10.977,9.039,17.751,11.942c6.769,2.901,14.026,4.353,21.766,4.353c7.736,0,15.03-1.451,21.876-4.353
		c6.843-2.903,12.797-6.882,17.858-11.942c5.057-5.057,8.605-10.973,11.507-17.746c2.902-6.77,3.918-14.024,3.918-21.764V47.681
		V47.557z"/>
	<path fill="#001C4F" d="M671.413,162.749c-4.018-1.709-7.449-4.053-10.424-7.031c-2.978-2.975-5.516-6.474-7.226-10.491
		c-1.713-4.018-2.762-8.259-2.762-12.723v-2.903v-28.64h33v-24h-33.075l0.244-49.801c-0.133-5.993-6.004-10.254-11.174-10.254
		c-6.749,0-11.995,5.024-11.995,11.275v19.233v0.045v86.161c0,7.589,1.869,14.733,4.921,21.429c3.048,6.696,7.165,12.5,12.225,17.41
		c5.057,4.912,10.833,8.817,17.529,11.72c6.697,2.901,13.324,4.353,21.324,4.353v-23.214
		C680,165.316,675.43,164.461,671.413,162.749z"/>
	<g>
		<path fill="#001C4F" d="M692.206,76.961l0.177,111.77c0.897,5.297,5.389,9.278,11.22,9.278c9.738,0,11.397-9.365,11.397-9.365
			V76.961H692.206z"/>
		<path fill="#001C4F" d="M703.387,16.861c-6.547,0-11.387,5.068-11.387,11.319V49.82c0,0.545,0,0.957,0,1.273v2.868h23V27.293
			C715,21.522,710.269,16.861,703.387,16.861z"/>
	</g>
</g>
</svg>
