<svg width="183" height="182" viewBox="0 0 183 182" fill="none" xmlns="http://www.w3.org/2000/svg">
<path d="M91.3234 175.085C137.896 175.085 175.651 137.33 175.651 90.757C175.651 44.1839 137.896 6.42896 91.3234 6.42896C44.7503 6.42896 6.99536 44.1839 6.99536 90.757C6.99536 137.33 44.7503 175.085 91.3234 175.085Z" fill="white"/>
<path d="M91.3234 181.514C41.2794 181.514 0.566406 140.801 0.566406 90.757C0.566406 40.713 41.2794 0 91.3234 0C141.366 0 182.079 40.713 182.079 90.757C182.079 140.801 141.367 181.514 91.3234 181.514ZM91.3234 12.857C48.3694 12.857 13.4234 47.803 13.4234 90.757C13.4234 133.711 48.3694 168.657 91.3234 168.657C134.276 168.657 169.222 133.711 169.222 90.757C169.222 47.803 134.277 12.857 91.3234 12.857Z" fill="#001C4F"/>
<path d="M91.3235 144.017C120.738 144.017 144.583 120.172 144.583 90.757C144.583 61.3423 120.738 37.4969 91.3235 37.4969C61.9088 37.4969 38.0635 61.3423 38.0635 90.757C38.0635 120.172 61.9088 144.017 91.3235 144.017Z" fill="#29ABE2"/>
<path d="M112.649 88.8111C122.726 88.8111 130.895 80.6421 130.895 70.5651C130.895 60.4881 122.726 52.3191 112.649 52.3191C102.572 52.3191 94.4033 60.4881 94.4033 70.5651C94.4033 80.6421 102.572 88.8111 112.649 88.8111Z" fill="white"/>
</svg>
